<svg width="403" height="403" viewBox="0 0 403 403" fill="none" xmlns="http://www.w3.org/2000/svg">
<path d="M250.538 250.605H243.36C244.769 248.66 245.641 245.977 245.641 243.092C245.641 236.988 241.884 232.091 237.189 232.091H67.5476C62.8521 232.091 59.0957 237.055 59.0957 243.092C59.0957 249.196 62.8521 254.093 67.5476 254.093H72.3772C73.1151 254.093 73.7859 254.294 74.3225 254.63C73.1151 256.508 72.3772 258.99 72.3772 261.606C72.3772 267.71 76.1336 272.607 80.8291 272.607H85.6588C88.3419 272.607 90.4884 275.491 90.4884 279.046V279.113C90.4884 285.217 94.2448 290.114 98.9403 290.114H219.48C224.176 290.114 227.932 285.15 227.932 279.113V279.046C227.932 275.558 230.079 272.607 232.762 272.607H250.538C255.233 272.607 258.989 267.643 258.989 261.606C258.989 255.502 255.233 250.605 250.538 250.605Z" fill="#E1ECFF"/>
<path d="M238.33 190.704L147.976 156.36L146.701 219.279L226.659 256.709C228.738 257.715 231.153 256.307 231.421 254.026L238.33 190.704Z" fill="#899BE0"/>
<path d="M95.8552 241.147L146.701 219.279L147.975 156.36L87.4033 182.118L91.0256 238.195C91.2268 240.61 93.6416 242.086 95.8552 241.147Z" fill="#899BE0"/>
<path d="M147.975 156.36H129.529C126.041 156.36 122.62 157.098 119.467 158.506L69.0911 180.776C67.7496 181.38 68.2191 183.392 69.6948 183.258L87.3365 182.118L147.975 156.36Z" fill="#B7C5FA"/>
<path d="M147.976 156.36L238.33 190.704H248.057C249.197 190.704 249.465 189.094 248.392 188.692L163.672 157.366C161.928 156.695 160.05 156.36 158.172 156.36H147.976Z" fill="#B7C5FA"/>
<path d="M169.709 234.104L163.068 253.087C163.068 253.087 150.591 240.409 140.06 218.609C137.377 213.108 136.371 207.272 136.304 201.705C136.102 187.685 142.274 175.41 145.024 175.142C147.908 174.873 144.152 186.344 145.158 197.881C145.493 201.705 146.298 205.461 148.042 208.882C157.031 226.524 169.709 234.104 169.709 234.104Z" fill="#FF8D76"/>
<path d="M145.091 197.881C143.011 199.156 139.456 201.034 136.236 201.638C136.035 187.618 142.206 175.343 144.956 175.075C147.841 174.873 144.152 186.344 145.091 197.881Z" fill="#FFD3B3"/>
<path d="M213.444 239.805C212.907 253.422 202.242 264.96 188.021 266.972C185.673 267.308 183.192 267.509 180.508 267.509C177.892 267.509 175.545 267.442 173.331 267.173C159.982 265.765 149.451 255.703 147.841 243.092C146.298 230.884 145.225 212.639 150.122 200.296C151.329 197.211 153.006 194.595 154.952 192.314C161.659 184.667 171.721 181.917 179.636 181.783C187.619 181.648 198.821 183.661 205.931 191.442C209.218 194.997 211.633 199.76 212.505 206.132C213.913 216.663 213.846 229.744 213.444 239.805Z" fill="#FEA691"/>
<path d="M179.502 254.697C192.381 254.898 201.638 249.465 202.51 235.646C203.382 221.828 205.395 199.491 180.509 198.955C155.622 198.418 158.239 223.505 158.037 232.896C157.836 242.287 163.605 254.428 179.502 254.697Z" fill="#FFD3B3"/>
<path d="M205.864 191.509C199.022 194.997 189.698 197.21 179.435 197.21C170.044 197.21 161.458 195.399 154.885 192.448C161.593 184.801 171.654 182.051 179.57 181.917C187.552 181.715 198.754 183.728 205.864 191.509Z" fill="#FF8D76"/>
<path d="M87.4033 182.118L91.0256 238.061C91.2268 241.214 93.0379 244.031 95.8552 245.507L174.069 286.894L175.276 219.414L87.4033 182.118Z" fill="#B7C5FA"/>
<path d="M89.6837 217.468L153.811 248.727C157.165 250.337 161.122 249.331 163.269 246.312L175.209 229.274V219.414L87.3359 182.118L89.6837 217.468Z" fill="#99ADF9"/>
<path d="M78.3478 206.937L154.616 242.891C156.83 243.964 159.446 243.226 160.854 241.147L175.343 219.414L87.4705 182.118L76.3355 199.827C74.6585 202.376 75.6647 205.662 78.3478 206.937Z" fill="#B7C5FA"/>
<path d="M225.585 261.405L174.068 286.894L175.276 219.414L238.329 190.704L231.555 252.886C231.152 256.575 228.871 259.728 225.585 261.405Z" fill="#99ADF9"/>
<path d="M175.275 229.274L182.386 244.702C184.13 248.458 188.624 250.001 192.313 248.19L234.439 226.926L238.396 190.771L175.342 219.481V229.274H175.275Z" fill="#899BE0"/>
<path d="M187.551 241.147L175.275 219.414L238.329 190.704L249.8 209.955C250.94 211.834 250.202 214.316 248.257 215.255L192.515 242.623C190.703 243.495 188.557 242.824 187.551 241.147Z" fill="#B7C5FA"/>
<path d="M252.953 153.945C252.819 156.628 249.801 171.989 234.708 184.935C220.622 197.009 201.571 206.199 201.571 206.199L200.498 177.892C200.498 177.892 217.804 172.794 227.933 164.007C238.062 155.219 241.617 146.566 244.166 145.493C245.239 145.024 246.178 145.091 246.849 145.225C247.788 145.426 248.325 145.963 248.325 145.963C248.325 145.963 248.392 145.963 248.526 145.896C248.996 145.761 250.136 145.627 251.209 146.835C251.947 147.64 251.746 149.987 251.746 149.987C251.746 149.987 252.551 150.792 252.752 152.469C252.953 152.939 253.02 153.408 252.953 153.945Z" fill="#FEA691"/>
<path d="M239.346 166.202C241.608 167.544 244.79 166.36 246.453 163.556C248.117 160.752 247.631 157.391 245.369 156.049C243.107 154.708 239.925 155.892 238.262 158.696C236.598 161.5 237.084 164.861 239.346 166.202Z" fill="#FFD3B3"/>
<path d="M248.661 145.963C248.527 146.566 248.258 147.573 247.655 149.048C246.581 151.597 245.776 152.738 245.374 152.872C244.368 153.274 244.234 151.866 245.24 149.92C245.978 148.378 246.648 146.164 246.917 145.292C247.856 145.493 248.392 146.03 248.392 146.03C248.392 146.03 248.527 145.963 248.661 145.963Z" fill="#FF8D76"/>
<path d="M252.953 152.536C252.819 152.805 252.752 153.073 252.618 153.408C251.478 155.957 250.606 157.031 250.203 157.165C249.197 157.5 249.13 156.159 250.136 154.213C251.209 152.268 251.947 150.055 251.947 150.055C251.947 150.055 252.685 150.86 252.953 152.536Z" fill="#FF8D76"/>
<path d="M202.376 205.931C202.04 205.931 201.705 205.73 201.571 205.394C201.37 204.925 201.571 204.388 202.04 204.187C202.175 204.12 218.206 197.144 231.823 185.941C249.062 171.788 251.209 157.567 251.209 157.433C251.276 156.964 251.746 156.561 252.215 156.628C252.685 156.695 253.087 157.165 253.02 157.634C252.953 158.238 250.806 172.593 232.964 187.283C219.145 198.619 202.98 205.73 202.778 205.797C202.644 205.864 202.51 205.931 202.376 205.931Z" fill="#FF8D76"/>
<path d="M186.947 124.162C186.947 124.162 193.655 108.935 197.613 108.197C201.503 107.46 203.516 117.052 205.126 125.034C206.802 133.016 207.205 139.657 207.205 139.657L186.947 124.162Z" fill="#FEA691"/>
<path d="M190.436 124.095C190.436 124.095 194.863 114.167 197.412 113.698C199.961 113.228 201.235 119.534 202.308 124.699C203.382 129.931 203.717 134.224 203.717 134.224L190.436 124.095Z" fill="#FFD3B3"/>
<path d="M172.727 124.162C172.727 124.162 166.02 108.935 162.062 108.197C158.171 107.46 156.159 117.052 154.549 125.034C152.939 133.016 152.47 139.657 152.47 139.657L172.727 124.162Z" fill="#FEA691"/>
<path d="M169.239 124.095C169.239 124.095 164.811 114.167 162.262 113.698C159.713 113.228 158.439 119.534 157.366 124.699C156.292 129.931 155.957 134.224 155.957 134.224L169.239 124.095Z" fill="#FFD3B3"/>
<path d="M209.151 166.019L191.576 165.549L166.154 164.879L149.853 164.476C149.853 164.476 149.116 141.602 155.756 130.602C159.244 124.766 165.751 120.674 172.928 118.997C176.551 118.125 180.374 117.857 184.063 118.326C188.893 118.93 193.522 120.741 197.144 123.961C208.883 134.358 207.675 144.017 208.413 152C209.151 159.982 209.151 166.019 209.151 166.019Z" fill="#FEA691"/>
<path d="M191.576 165.549L166.153 164.879C167.495 161.458 169.843 154.347 171.184 144.688C172.526 135.297 172.794 124.833 172.861 118.997C176.483 118.125 180.307 117.857 183.996 118.326C184.063 123.76 184.466 133.218 186.076 143.816C187.887 155.622 190.369 162.598 191.576 165.549Z" fill="#FFD3B3"/>
<path d="M211.565 172.66C211.565 183.728 197.211 192.716 179.502 192.716C161.793 192.716 147.438 183.728 147.438 172.66C147.438 158.909 161.793 152.603 179.502 152.603C197.211 152.603 211.565 159.58 211.565 172.66Z" fill="#FFD3B3"/>
<path d="M171.453 160.385C173.197 157.903 186.143 157.031 187.954 159.781C189.765 162.464 185.003 168.3 180.374 168.3C175.746 168.3 169.105 163.671 171.453 160.385Z" fill="#413F4C"/>
<path d="M157.098 129.931C156.897 129.931 156.696 129.864 156.561 129.73C156.159 129.461 156.092 128.858 156.36 128.455C156.427 128.321 158.641 125.437 162.464 122.955C167.026 119.936 169.373 119.333 169.441 119.333C169.91 119.198 170.447 119.467 170.514 120.003C170.648 120.473 170.38 121.009 169.843 121.077C169.843 121.077 167.629 121.68 163.403 124.498C159.848 126.845 157.702 129.596 157.702 129.596C157.635 129.797 157.366 129.931 157.098 129.931Z" fill="#FF8D76"/>
<path d="M201.37 129.931C201.571 129.931 201.772 129.864 201.906 129.73C202.309 129.461 202.376 128.858 202.108 128.455C202.041 128.321 199.827 125.437 196.004 122.955C191.442 119.936 189.094 119.333 189.027 119.333C188.558 119.198 188.021 119.467 187.954 120.003C187.82 120.473 188.088 121.009 188.625 121.077C188.625 121.077 190.838 121.68 195.064 124.498C198.62 126.845 200.766 129.596 200.766 129.596C200.833 129.797 201.101 129.931 201.37 129.931Z" fill="#FF8D76"/>
<path d="M173.13 178.093C173.13 178.093 178.295 177.557 180.777 173.532C183.728 177.624 188.021 176.685 188.021 176.685C188.021 176.685 188.893 184.734 181.582 185.338C173.868 186.008 173.13 178.093 173.13 178.093Z" fill="#FF6EA9"/>
<path d="M180.71 182.722C180.173 182.654 179.704 182.185 179.771 181.648C179.838 178.965 179.637 174.203 179.637 174.136C179.637 173.532 180.039 173.062 180.643 173.062C181.18 173.062 181.716 173.465 181.716 174.068C181.716 174.27 181.917 179.032 181.85 181.782C181.783 182.252 181.314 182.722 180.71 182.722C180.777 182.722 180.71 182.722 180.71 182.722Z" fill="#EA4E95"/>
<path d="M172.325 179.167C169.172 179.167 166.757 178.026 166.69 177.959C166.087 177.691 165.885 176.953 166.154 176.349C166.422 175.746 167.16 175.544 167.764 175.813C168.032 175.947 175.008 179.301 179.838 172.861C180.039 172.526 180.441 172.392 180.777 172.392C181.179 172.392 181.515 172.593 181.716 172.928C184.936 177.557 191.442 175.209 191.711 175.142C192.314 174.941 192.985 175.209 193.253 175.813C193.455 176.416 193.186 177.087 192.583 177.355C189.899 178.362 184.332 179.099 180.777 175.477C178.027 178.362 174.941 179.167 172.325 179.167Z" fill="#413F4C"/>
<path d="M193.588 151.329C195.218 151.329 196.54 149.767 196.54 147.841C196.54 145.914 195.218 144.353 193.588 144.353C191.958 144.353 190.637 145.914 190.637 147.841C190.637 149.767 191.958 151.329 193.588 151.329Z" fill="#413F4C"/>
<path d="M163.806 151.329C165.436 151.329 166.757 149.767 166.757 147.841C166.757 145.914 165.436 144.353 163.806 144.353C162.176 144.353 160.854 145.914 160.854 147.841C160.854 149.767 162.176 151.329 163.806 151.329Z" fill="#413F4C"/>
<path d="M188.625 137.108C189.162 135.297 192.381 135.498 194.729 136.303C197.077 137.108 198.955 138.651 198.418 139.59C197.882 140.596 187.552 140.596 188.625 137.108Z" fill="#FFD3B3"/>
<path d="M167.629 137.041C167.025 135.23 163.805 135.498 161.457 136.37C159.11 137.242 157.299 138.785 157.902 139.724C158.506 140.663 168.836 140.462 167.629 137.041Z" fill="#FFD3B3"/>
<path d="M339.886 268.917L305.609 280.79L289.779 286.291L285.955 287.632L258.051 297.292C254.093 298.7 249.666 297.694 246.58 294.81L243.025 291.389C241.013 289.443 241.147 286.291 242.958 284.48C243.428 284.01 244.031 283.608 244.702 283.406L326.404 254.965C328.818 254.16 331.434 254.63 333.313 256.307L340.893 262.88C341.161 263.082 341.362 263.35 341.563 263.618C342.905 265.496 342.167 268.112 339.886 268.917Z" fill="#FFCB8D"/>
<path d="M319.763 307.152L281.394 319.427C277.839 320.568 273.949 319.763 271.131 317.281L267.576 314.128C265.631 312.451 265.497 309.701 266.771 307.823C267.375 306.951 268.247 306.28 269.32 305.945L294.743 298.298C294.944 298.231 295.078 298.164 295.212 298.029C296.017 297.426 296.084 296.285 295.28 295.548L285.956 287.565L282.937 285.016L282.4 284.547C279.449 282.065 280.522 277.235 284.279 276.296L297.359 272.875L305.61 280.79L322.178 296.621C322.715 297.09 323.117 297.694 323.385 298.298C325.129 301.585 323.587 305.945 319.763 307.152Z" fill="#FFCB8D"/>
<path d="M295.279 298.029C296.084 297.426 296.151 296.285 295.347 295.548L286.023 287.565L258.118 297.225C254.16 298.633 249.733 297.627 246.648 294.743L243.092 291.322C241.08 289.376 241.214 286.224 243.025 284.413C244.769 286.962 250.806 292.864 254.764 292.999C258.588 293.133 286.693 283.138 286.693 283.138C286.693 283.138 298.969 293.602 299.438 294.139C300.713 295.48 297.426 297.493 295.279 298.029Z" fill="#FCAA51"/>
<path d="M339.887 268.917L305.61 280.79L301.987 277.436C301.987 277.436 335.661 265.228 340.021 264.021C340.624 263.886 341.161 263.752 341.698 263.618C342.905 265.496 342.167 268.112 339.887 268.917Z" fill="#FCAA51"/>
<path d="M319.763 307.152L281.394 319.427C277.839 320.568 273.949 319.763 271.131 317.281L267.576 314.128C265.631 312.451 265.497 309.701 266.771 307.823C269.79 309.902 275.961 314.195 277.504 314.598C279.516 315.067 287.767 312.384 296.755 309.164C305.744 305.945 320.501 299.975 323.452 298.365C325.129 301.585 323.587 305.945 319.763 307.152Z" fill="#FCAA51"/>
<path d="M325.062 211.968C323.787 208.01 320.433 204.455 314.061 201.369C294.206 191.71 272.673 211.431 259.861 225.249C253.422 232.226 249.33 238.531 248.391 244.031C247.452 249.465 249.598 254.026 255.703 257.38C279.18 270.393 299.639 253.355 312.317 239.537C320.769 230.079 327.745 220.286 325.062 211.968ZM297.157 229.744C285.418 240.275 275.088 249.398 266.838 244.635C266.167 244.233 265.697 243.763 265.429 243.159C264.087 240.074 268.582 234.305 279.113 225.518C291.657 214.986 298.968 209.352 305.408 211.767C307.018 212.37 308.024 213.108 308.426 214.047C309.835 216.932 306.011 221.761 297.157 229.744Z" fill="#FFCB8D"/>
<path d="M312.183 239.47C299.505 253.355 279.046 270.393 255.569 257.313C249.465 253.959 247.318 249.398 248.257 243.964C250.135 247.654 254.026 252.483 262.075 254.697C275.961 258.52 290.181 254.898 304.871 240.677C317.751 228.134 322.111 218.676 324.995 211.968C327.745 220.285 320.769 230.079 312.183 239.47Z" fill="#FCAA51"/>
<path d="M308.427 213.98C307.957 213.041 306.951 212.303 305.408 211.699C298.969 209.285 291.657 214.919 279.113 225.451C268.582 234.305 264.088 240.007 265.429 243.092C264.759 242.556 264.021 241.549 263.752 239.403C263.283 235.378 265.765 231.488 273.009 224.78C280.254 218.072 290.651 209.553 297.023 208.211C303.329 206.937 307.756 210.224 308.36 212.84C308.427 213.242 308.427 213.578 308.427 213.98Z" fill="#FCAA51"/>
<path d="M269.253 191.308L263.216 194.125C259.728 195.735 255.502 194.192 253.959 190.637L222.03 117.79C221.091 115.576 221.56 113.094 223.103 111.417C223.64 110.813 224.31 110.344 225.048 110.009L232.695 106.588C235.714 105.246 239.202 106.588 240.543 109.606L272.674 182.252C273.009 182.923 273.143 183.661 273.21 184.399C273.479 187.216 272.003 190.033 269.253 191.308Z" fill="#FFCB8D"/>
<path d="M288.639 136.236L258.387 149.853L251.947 152.738L241.349 137.846L265.765 126.778C266.101 126.644 266.369 126.443 266.637 126.175C267.71 125.168 267.912 123.424 266.906 122.15L254.63 106.655C252.685 104.173 252.953 100.819 254.831 98.6053C255.435 97.8674 256.24 97.3308 257.179 96.9283L262.143 94.983C264.692 93.9769 267.643 94.7147 269.387 96.9283L291.456 124.766C291.725 125.101 291.926 125.437 292.127 125.839C294.139 129.596 292.664 134.358 288.639 136.236Z" fill="#FFCB8D"/>
<path d="M288.638 136.236L258.386 149.853L255.837 144.487C255.837 144.487 281.125 134.224 287.632 130.468C290.047 129.059 291.388 127.382 292.126 125.839C294.139 129.596 292.663 134.358 288.638 136.236Z" fill="#FCAA51"/>
<path d="M269.253 191.308L263.216 194.125C259.728 195.735 255.502 194.192 253.959 190.637L222.03 117.79C221.091 115.576 221.56 113.094 223.103 111.417C229.542 125.638 257.984 188.423 258.319 189.295C258.722 190.301 258.856 190.972 261.74 189.698C264.423 188.49 270.93 186.076 273.278 184.399C273.479 187.216 272.003 190.033 269.253 191.308Z" fill="#FCAA51"/>
<path d="M266.57 126.242C267.643 125.235 267.845 123.491 266.839 122.217L254.563 106.722C252.618 104.24 252.886 100.886 254.764 98.6724C257.38 102.093 270.528 119.131 271.735 121.345C272.674 122.955 269.119 125.034 266.57 126.242Z" fill="#FCAA51"/>
<path d="M141.066 124.095C143.029 124.095 144.621 122.503 144.621 120.54C144.621 118.576 143.029 116.985 141.066 116.985C139.102 116.985 137.511 118.576 137.511 120.54C137.511 122.503 139.102 124.095 141.066 124.095Z" fill="#BBCBFF"/>
<path d="M141.066 110.21C143.029 110.21 144.621 108.618 144.621 106.655C144.621 104.691 143.029 103.099 141.066 103.099C139.102 103.099 137.511 104.691 137.511 106.655C137.511 108.618 139.102 110.21 141.066 110.21Z" fill="#BBCBFF"/>
<path d="M141.066 96.3246C143.029 96.3246 144.621 94.7329 144.621 92.7694C144.621 90.8059 143.029 89.2142 141.066 89.2142C139.102 89.2142 137.511 90.8059 137.511 92.7694C137.511 94.7329 139.102 96.3246 141.066 96.3246Z" fill="#BBCBFF"/>
</svg>
