<svg width="652" height="652" viewBox="0 0 652 652" fill="none" xmlns="http://www.w3.org/2000/svg">
<path d="M119.511 543.155C5.43757 477.264 5.43757 370.506 119.511 304.64C233.585 238.775 418.558 238.775 532.645 304.64C646.732 370.506 646.719 477.29 532.645 543.155C418.571 609.02 233.598 608.968 119.511 543.155Z" fill="#F5F5F5"/>
<path d="M178.844 469.27C246.634 469.27 301.589 437.54 301.589 398.398C301.589 359.256 246.634 327.526 178.844 327.526C111.053 327.526 56.0981 359.256 56.0981 398.398C56.0981 437.54 111.053 469.27 178.844 469.27Z" fill="#E0E0E0"/>
<path d="M466.037 484.436C541.684 484.436 603.009 449.033 603.009 405.361C603.009 361.69 541.684 326.287 466.037 326.287C390.389 326.287 329.064 361.69 329.064 405.361C329.064 449.033 390.389 484.436 466.037 484.436Z" fill="#E0E0E0"/>
<path d="M300.703 432.537L184.099 499.862C181.23 501.518 181.23 504.205 184.099 505.861L300.703 573.173C302.316 574.003 304.104 574.435 305.919 574.435C307.733 574.435 309.521 574.003 311.135 573.173L427.712 505.861C430.581 504.205 430.581 501.518 427.712 499.862L311.095 432.537C309.485 431.72 307.705 431.294 305.899 431.294C304.093 431.294 302.313 431.72 300.703 432.537Z" fill="#E0E0E0"/>
<path d="M548.345 394.903L538.109 386.532C538.109 386.532 535.931 357.492 542.699 332.768C552.231 298.016 571.791 285.041 583.775 290.961C592.277 295.147 595.276 308.187 577.255 326.874C566.536 337.892 551.71 362.042 548.345 394.903Z" fill="#99ADF9"/>
<path opacity="0.3" d="M548.345 394.903L538.109 386.532C538.109 386.532 535.931 357.492 542.699 332.768C552.231 298.016 571.791 285.041 583.775 290.961C592.277 295.147 595.276 308.187 577.255 326.874C566.536 337.892 551.71 362.042 548.345 394.903Z" fill="black"/>
<path d="M544.473 376.113H544.577C544.681 376.111 544.785 376.089 544.88 376.047C544.976 376.006 545.063 375.946 545.136 375.871C545.208 375.795 545.265 375.707 545.304 375.61C545.342 375.512 545.361 375.409 545.359 375.304C544.473 341.674 563.25 311.174 579.85 298.225C580.014 298.092 580.119 297.9 580.144 297.691C580.168 297.481 580.109 297.27 579.981 297.103C579.917 297.021 579.838 296.953 579.747 296.902C579.657 296.85 579.557 296.818 579.454 296.806C579.351 296.794 579.246 296.802 579.146 296.831C579.046 296.86 578.953 296.908 578.872 296.973C561.92 310.169 542.869 341.218 543.768 375.343C543.774 375.535 543.848 375.718 543.977 375.86C544.106 376.001 544.282 376.091 544.473 376.113Z" fill="white"/>
<path d="M569.053 421.779C576.094 419.484 577.698 415.441 578.911 410.421C579.275 408.736 579.524 407.028 579.654 405.309L580.163 400.25C580.209 398.575 580.6 396.929 581.31 395.412C582.94 392.465 586.526 391.383 589.812 390.509C593.398 389.544 597.376 387.901 598.836 384.211C599.787 381.231 599.722 378.021 598.654 375.083C597.767 372.109 596.45 369.267 595.785 366.241C595.178 364.083 595.329 361.781 596.215 359.721C596.895 358.507 597.813 357.443 598.914 356.592C601.679 354.297 604.939 352.523 606.895 349.394C607.661 348.249 608.11 346.922 608.199 345.547C608.368 341.426 605.043 339.549 601.848 338.518C599.626 337.938 597.304 337.844 595.042 338.245C587.804 339.183 581.623 344.856 574.334 344.895C571.517 344.895 568.766 344.06 565.975 343.734C563.185 343.408 560.081 343.656 557.982 345.534C553.835 349.224 555.869 356.618 552.296 360.869C549.688 363.985 545.568 364.442 542.269 366.502C538.438 368.739 535.516 372.251 534.014 376.426C532.174 381.069 531.603 386.119 532.358 391.057C533.975 401.345 541.356 407.383 548.45 414.072C551.449 416.928 562.024 424.087 569.053 421.779Z" fill="#99ADF9"/>
<path opacity="0.1" d="M569.053 421.779C576.094 419.484 577.698 415.441 578.911 410.421C579.275 408.736 579.524 407.028 579.654 405.309L580.163 400.25C580.209 398.575 580.6 396.929 581.31 395.412C582.94 392.465 586.526 391.383 589.812 390.509C593.398 389.544 597.376 387.901 598.836 384.211C599.787 381.231 599.722 378.021 598.654 375.083C597.767 372.109 596.45 369.267 595.785 366.241C595.178 364.083 595.329 361.781 596.215 359.721C596.895 358.507 597.813 357.443 598.914 356.592C601.679 354.297 604.939 352.523 606.895 349.394C607.661 348.249 608.11 346.922 608.199 345.547C608.368 341.426 605.043 339.549 601.848 338.518C599.626 337.938 597.304 337.844 595.042 338.245C587.804 339.183 581.623 344.856 574.334 344.895C571.517 344.895 568.766 344.06 565.975 343.734C563.185 343.408 560.081 343.656 557.982 345.534C553.835 349.224 555.869 356.618 552.296 360.869C549.688 363.985 545.568 364.442 542.269 366.502C538.438 368.739 535.516 372.251 534.014 376.426C532.174 381.069 531.603 386.119 532.358 391.057C533.975 401.345 541.356 407.383 548.45 414.072C551.449 416.928 562.024 424.087 569.053 421.779Z" fill="black"/>
<path d="M597.806 343.93C597.768 343.832 597.712 343.743 597.64 343.667C597.568 343.591 597.481 343.53 597.385 343.488C597.29 343.445 597.187 343.422 597.082 343.42C596.977 343.417 596.873 343.436 596.776 343.474C588.482 346.734 575.612 357.583 564.293 372.162C564.204 372.208 564.125 372.272 564.062 372.351C563.999 372.429 563.953 372.52 563.928 372.618C555.866 382.853 549.467 394.295 544.968 406.522C544.899 406.716 544.909 406.929 544.994 407.116C545.079 407.303 545.233 407.45 545.424 407.526V407.526C545.623 407.594 545.841 407.581 546.03 407.491C546.22 407.401 546.368 407.24 546.441 407.043C550.872 395.014 557.155 383.751 565.062 373.661C572.606 374.543 580.037 376.217 587.23 378.655C587.33 378.69 587.435 378.705 587.54 378.699C587.645 378.693 587.748 378.666 587.842 378.62C587.937 378.574 588.022 378.51 588.091 378.431C588.161 378.352 588.214 378.26 588.247 378.16C588.284 378.062 588.3 377.957 588.295 377.852C588.29 377.747 588.263 377.645 588.216 377.551C588.17 377.457 588.105 377.373 588.025 377.305C587.945 377.237 587.852 377.187 587.752 377.156C580.764 374.786 573.556 373.122 566.236 372.188C577.177 358.352 589.408 348.103 597.349 344.986C597.449 344.947 597.54 344.889 597.617 344.815C597.694 344.741 597.756 344.652 597.798 344.553C597.841 344.455 597.863 344.349 597.865 344.242C597.866 344.135 597.846 344.029 597.806 343.93V343.93Z" fill="white"/>
<path d="M126.24 386.884C127.088 368.628 129.057 351.493 120.646 325.178C113.578 303.115 92.584 280.673 79.0094 281.155C66.3997 281.612 58.8887 295.499 73.9629 311.147C77.1577 314.46 108.089 341.139 109.523 371.444L112.835 388.957C112.936 389.444 113.148 389.9 113.454 390.292C113.759 390.684 114.151 391 114.598 391.217C115.045 391.434 115.536 391.545 116.033 391.542C116.53 391.539 117.02 391.422 117.464 391.2L126.24 386.884Z" fill="#99ADF9"/>
<path opacity="0.3" d="M126.24 386.884C127.088 368.628 129.057 351.493 120.646 325.178C113.578 303.115 92.584 280.673 79.0094 281.155C66.3997 281.612 58.8887 295.499 73.9629 311.147C77.1577 314.46 108.089 341.139 109.523 371.444L112.835 388.957C112.936 389.444 113.148 389.9 113.454 390.292C113.759 390.684 114.151 391 114.598 391.217C115.045 391.434 115.536 391.545 116.033 391.542C116.53 391.539 117.02 391.422 117.464 391.2L126.24 386.884Z" fill="black"/>
<path d="M121.272 385.645C121.103 385.598 120.954 385.497 120.846 385.359C120.738 385.22 120.677 385.051 120.672 384.876C120.073 338.466 103.421 305.958 78.4359 291.118C78.3328 291.071 78.2409 291.002 78.1661 290.917C78.0912 290.832 78.0351 290.732 78.0014 290.624C77.9677 290.516 77.9571 290.401 77.9704 290.289C77.9836 290.176 78.0204 290.068 78.0783 289.97C78.1363 289.873 78.214 289.789 78.3066 289.723C78.3991 289.658 78.5044 289.612 78.6156 289.59C78.7268 289.568 78.8414 289.57 78.952 289.595C79.0625 289.62 79.1666 289.668 79.2574 289.736C104.568 304.758 121.676 337.866 122.289 384.85C122.293 384.956 122.275 385.062 122.236 385.162C122.198 385.261 122.14 385.352 122.066 385.429C121.992 385.506 121.903 385.566 121.804 385.608C121.706 385.65 121.601 385.671 121.494 385.671C121.419 385.675 121.344 385.666 121.272 385.645V385.645Z" fill="white"/>
<path d="M115.43 392.191C114.692 392.571 113.881 392.791 113.051 392.836C112.222 392.88 111.392 392.748 110.617 392.449C109.842 392.149 109.14 391.689 108.555 391.099C107.971 390.508 107.519 389.8 107.228 389.022C103.792 380.761 98.7473 373.266 92.3884 366.972C80.848 355.17 64.7827 347.659 62.2791 339.744C59.2799 330.225 67.7559 325.478 81.4087 328.882C97.8 332.963 115.508 352.484 117.36 391.2L115.43 392.191Z" fill="#99ADF9"/>
<path opacity="0.1" d="M115.43 392.191C114.692 392.571 113.881 392.791 113.051 392.836C112.222 392.88 111.392 392.748 110.617 392.449C109.842 392.149 109.14 391.689 108.555 391.099C107.971 390.508 107.519 389.8 107.228 389.022C103.792 380.761 98.7473 373.266 92.3884 366.972C80.848 355.17 64.7827 347.659 62.2791 339.744C59.2799 330.225 67.7559 325.478 81.4087 328.882C97.8 332.963 115.508 352.484 117.36 391.2L115.43 392.191Z" fill="black"/>
<path d="M112.796 389.713C112.645 389.669 112.511 389.583 112.407 389.465C112.303 389.348 112.234 389.203 112.209 389.048C106.993 355.079 84.9424 339.236 74.0018 335.584C73.8002 335.516 73.6337 335.371 73.5385 335.18C73.4433 334.99 73.427 334.77 73.4932 334.567C73.5243 334.465 73.5755 334.37 73.6439 334.289C73.7123 334.207 73.7964 334.14 73.8913 334.091C73.9862 334.042 74.0899 334.013 74.1962 334.005C74.3026 333.998 74.4094 334.011 74.5104 334.046C86.6115 338.075 108.506 354.127 113.813 388.814C113.83 388.919 113.825 389.027 113.8 389.13C113.775 389.234 113.73 389.332 113.667 389.418C113.604 389.504 113.524 389.577 113.433 389.632C113.342 389.687 113.24 389.724 113.135 389.74C113.021 389.751 112.906 389.742 112.796 389.713V389.713Z" fill="white"/>
<path d="M544.877 345.964C550.601 363.06 555.517 385.084 563.263 418.388C570.513 449.554 570.552 471.566 560.485 479.116C550.679 486.457 521.496 482.063 503.214 443.125C497.489 430.959 474.369 391.239 474.369 391.239C468.557 389.977 462.928 387.988 457.613 385.319L394.525 388.422C368.706 383.141 325.296 376.986 328.569 367.558C332.038 357.492 346.251 349.511 360.439 344.543C391.461 333.694 413.746 331.203 445.368 329.169L544.877 345.964Z" fill="#37474F"/>
<path d="M455.983 374.248C447.533 360.856 447.389 353.071 447.389 353.071C447.389 353.071 445.616 369.684 453.74 381.224L398.229 388.201L457.613 385.28C462.923 387.948 468.549 389.937 474.356 391.2C474.356 391.2 464.446 387.679 455.983 374.248Z" fill="#263238"/>
<path d="M441.495 421.322C445.838 424.595 451.158 427.595 455.983 428.247C457.733 428.485 459.514 428.334 461.199 427.803C467.041 426.043 476.573 425.195 480.954 436.788C485.923 449.919 501.531 455.044 506.369 463.846C508.782 468.292 510.999 481.541 509.76 489.926C508.73 496.798 495.272 492.938 489.73 485.166C484.188 477.394 472.843 467.484 465.528 461.838C453.883 456.622 440.752 448.498 435.171 445.277L441.495 421.322Z" fill="#874C4C"/>
<path d="M355.823 352.602C321.919 357.896 323.223 377.938 332.924 390.874C343.421 404.814 378.851 421.766 397.942 430.62C415.494 438.77 447.259 452.371 447.259 452.371C447.063 443.524 450.174 434.922 455.983 428.247C435.927 416.732 414.868 380.533 382.894 378.095L355.823 352.602Z" fill="#37474F"/>
<path d="M504.935 494.503C506.927 494.625 508.891 493.982 510.425 492.703C511.859 491.491 514.337 481.685 510.555 470.392C507.69 462.026 502.638 454.579 495.924 448.824C491.856 445.212 490.095 440.791 488.257 435.184C486.418 429.577 481.593 422.848 478.594 422.313C475.595 421.779 471.396 424.426 471.396 424.426L504.935 494.503Z" fill="#263238"/>
<path d="M456.309 457.704C457.352 461.29 460.443 461.955 463.807 462.92C468.371 464.289 472.935 468.475 477.421 473.222C480.433 476.429 482.989 479.742 485.753 483.119C488.518 486.496 491.074 491.556 493.981 494.099C498.233 497.802 506.03 496.355 507.673 490.408C509.095 485.284 508.821 472.87 502.092 461.551C498.428 455.383 489.339 449.815 486.327 441.3C484.306 435.562 481.646 428.742 476.925 424.674C474.135 422.261 471.84 423.109 468.71 424.296C464.554 425.865 460.303 427.172 455.983 428.208C456.395 431.84 457.803 435.288 460.051 438.17C460.908 439.071 461.565 440.142 461.981 441.313C462.131 442.145 462.131 442.997 461.981 443.829C461.838 444.977 461.538 446.359 460.443 446.763C459.988 446.875 459.526 446.954 459.06 446.998C457.326 447.389 456.661 449.463 456.361 451.223C455.947 453.112 455.876 455.06 456.152 456.974C456.19 457.22 456.242 457.464 456.309 457.704V457.704Z" fill="#99ADF9"/>
<path opacity="0.4" d="M456.309 457.704C457.352 461.29 460.443 461.955 463.807 462.92C468.371 464.289 472.935 468.475 477.421 473.222C480.433 476.429 482.989 479.742 485.753 483.119C488.518 486.496 491.074 491.556 493.981 494.099C498.233 497.802 506.03 496.355 507.673 490.408C509.095 485.284 508.821 472.87 502.092 461.551C498.428 455.383 489.339 449.815 486.327 441.3C484.306 435.562 481.646 428.742 476.925 424.674C474.135 422.261 471.84 423.109 468.71 424.296C464.554 425.865 460.303 427.172 455.983 428.208C456.395 431.84 457.803 435.288 460.051 438.17C460.908 439.071 461.565 440.142 461.981 441.313C462.131 442.145 462.131 442.997 461.981 443.829C461.838 444.977 461.538 446.359 460.443 446.763C459.988 446.875 459.526 446.954 459.06 446.998C457.326 447.389 456.661 449.463 456.361 451.223C455.947 453.112 455.876 455.06 456.152 456.974C456.19 457.22 456.242 457.464 456.309 457.704V457.704Z" fill="black"/>
<path d="M473.013 468.918C472.141 468.721 471.332 468.309 470.66 467.719C469.988 467.129 469.475 466.38 469.166 465.541C468.019 463.129 468.697 458.16 470.249 454.77C470.393 454.45 470.613 454.17 470.891 453.954C471.168 453.739 471.494 453.595 471.84 453.534C472.186 453.474 472.542 453.499 472.876 453.607C473.21 453.716 473.512 453.905 473.756 454.157V454.157C474.061 454.476 474.26 454.882 474.326 455.318C474.391 455.755 474.32 456.201 474.121 456.596C472.163 460.403 471.765 464.823 473.013 468.918V468.918Z" fill="#F5F5F5"/>
<path d="M479.494 475.595C478.569 475.252 477.74 474.692 477.077 473.961C476.414 473.23 475.937 472.35 475.686 471.396C475.686 471.396 474.122 464.732 476.847 459.66C476.989 459.353 477.203 459.086 477.471 458.879C477.739 458.673 478.053 458.535 478.386 458.476C478.719 458.417 479.061 458.439 479.383 458.541C479.705 458.643 479.998 458.821 480.237 459.06V459.06C480.534 459.366 480.726 459.757 480.787 460.179C480.848 460.6 480.774 461.03 480.576 461.407C479.35 463.542 478.617 465.924 478.43 468.379C478.242 470.833 478.606 473.299 479.494 475.595Z" fill="#F5F5F5"/>
<path d="M485.753 483.21C484.869 482.768 484.09 482.141 483.469 481.372C482.848 480.602 482.399 479.708 482.154 478.751C482.154 478.751 480.746 472.531 483.458 467.419C483.6 467.112 483.814 466.844 484.082 466.638C484.35 466.432 484.664 466.294 484.997 466.235C485.33 466.176 485.672 466.198 485.994 466.3C486.317 466.402 486.61 466.58 486.848 466.819V466.819C487.141 467.13 487.331 467.523 487.391 467.945C487.452 468.368 487.381 468.799 487.187 469.179C485.867 471.242 485.049 473.587 484.8 476.024C484.551 478.461 484.877 480.922 485.753 483.21V483.21Z" fill="#F5F5F5"/>
<path d="M444.338 414.229C438.261 412.69 429.342 410.512 425.652 405.648C421.961 400.784 414.32 396.09 403.979 402.897C397.459 407.2 389.635 408.621 381.902 409.13C378.564 409.352 374.809 408.934 371.549 409.612C367.637 410.434 363.477 412.833 360.1 414.92C357.889 416.158 355.95 417.83 354.401 419.836C353.138 421.717 352.446 423.923 352.409 426.188C352.372 428.453 352.991 430.681 354.192 432.602C354.653 433.378 355.28 434.041 356.029 434.544C356.778 435.047 357.629 435.377 358.522 435.51C362.095 436.292 365.042 435.171 368.458 434.206C371.249 433.437 374.104 432.837 376.973 432.315C383.433 431.106 389.969 430.343 396.533 430.033C399.337 429.916 405.14 429.485 407.943 429.681C419.679 430.489 436.188 437.062 436.188 437.062L444.338 414.229Z" fill="#9E6767"/>
<path d="M565.936 470.249C564.006 482.063 550.745 487.761 522.304 482.076C493.864 476.39 426.187 433.828 426.187 433.828C426.187 433.828 428.795 417.489 444.443 413.094C444.443 413.094 458.591 415.702 481.685 420.683C492.088 422.971 502.364 425.8 512.472 429.159C528.12 450.115 544.316 441.652 550.171 449.019C559.899 461.329 565.936 470.249 565.936 470.249Z" fill="#37474F"/>
<path d="M351.245 433.254C349.561 432.178 348.353 430.498 347.868 428.56C347.425 426.734 351.167 417.319 360.908 410.473C368.162 405.408 376.641 402.378 385.462 401.697C390.874 401.176 394.903 398.646 399.702 395.177C404.501 391.709 412.364 389.166 415.102 390.496C417.841 391.826 419.666 396.455 419.666 396.455L351.245 433.254Z" fill="#263238"/>
<path d="M412.181 432.276C409.221 434.558 406.326 433.28 403.053 432.107C398.554 430.503 392.373 431.181 385.984 432.38C381.655 433.202 377.664 434.336 373.413 435.445C369.162 436.553 364.129 439.135 360.282 439.461C354.675 439.944 349.237 434.18 351.415 428.403C353.293 423.422 360.843 413.564 372.957 408.4C379.555 405.583 390.144 406.496 397.629 401.358C402.649 397.916 408.817 393.991 415.037 393.534C418.714 393.234 420.07 395.269 421.896 398.072C424.331 401.782 427.001 405.332 429.89 408.7C427.419 411.38 424.263 413.332 420.762 414.346C419.537 414.564 418.372 415.039 417.345 415.741C416.738 416.328 416.24 417.016 415.872 417.776C415.311 418.793 414.737 420.071 415.376 421.049C415.683 421.406 416.014 421.741 416.367 422.053C417.541 423.357 416.837 425.469 416.054 427.06C415.266 428.826 414.176 430.441 412.833 431.833C412.572 431.963 412.377 432.133 412.181 432.276Z" fill="#99ADF9"/>
<path opacity="0.4" d="M412.181 432.276C409.221 434.558 406.326 433.28 403.053 432.107C398.554 430.503 392.373 431.181 385.984 432.38C381.655 433.202 377.664 434.336 373.413 435.445C369.162 436.553 364.129 439.135 360.282 439.461C354.675 439.944 349.237 434.18 351.415 428.403C353.293 423.422 360.843 413.564 372.957 408.4C379.555 405.583 390.144 406.496 397.629 401.358C402.649 397.916 408.817 393.991 415.037 393.534C418.714 393.234 420.07 395.269 421.896 398.072C424.331 401.782 427.001 405.332 429.89 408.7C427.419 411.38 424.263 413.332 420.762 414.346C419.537 414.564 418.372 415.039 417.345 415.741C416.738 416.328 416.24 417.016 415.872 417.776C415.311 418.793 414.737 420.071 415.376 421.049C415.683 421.406 416.014 421.741 416.367 422.053C417.541 423.357 416.837 425.469 416.054 427.06C415.266 428.826 414.176 430.441 412.833 431.833C412.572 431.963 412.377 432.133 412.181 432.276Z" fill="black"/>
<path d="M392.113 431.441C392.933 431.798 393.83 431.943 394.72 431.863C395.611 431.783 396.468 431.482 397.211 430.985C399.559 429.681 401.945 425.3 402.688 421.648C402.769 421.302 402.763 420.942 402.67 420.598C402.577 420.255 402.401 419.941 402.157 419.682C401.912 419.424 401.608 419.23 401.271 419.118C400.934 419.006 400.574 418.979 400.224 419.04C399.786 419.118 399.384 419.328 399.071 419.643C398.758 419.959 398.55 420.363 398.476 420.801C397.826 425.043 395.542 428.862 392.113 431.441Z" fill="#F5F5F5"/>
<path d="M382.933 433.006C383.883 433.273 384.883 433.309 385.85 433.109C386.816 432.909 387.721 432.481 388.488 431.859C388.488 431.859 393.704 427.399 394.499 421.674C394.566 421.344 394.552 421.001 394.458 420.677C394.364 420.353 394.194 420.056 393.961 419.811C393.728 419.567 393.44 419.382 393.12 419.273C392.801 419.164 392.46 419.133 392.126 419.184V419.184C391.706 419.257 391.319 419.46 391.02 419.764C390.72 420.068 390.524 420.458 390.457 420.879C390.191 423.335 389.376 425.7 388.074 427.798C386.772 429.897 385.015 431.677 382.933 433.006V433.006Z" fill="#F5F5F5"/>
<path d="M373.387 435.445C374.362 435.614 375.361 435.571 376.317 435.319C377.274 435.067 378.165 434.611 378.929 433.984C378.929 433.984 383.741 429.798 384.549 424.061C384.616 423.73 384.602 423.388 384.508 423.063C384.415 422.739 384.244 422.442 384.011 422.198C383.778 421.953 383.49 421.768 383.171 421.659C382.851 421.55 382.51 421.519 382.176 421.57C381.756 421.644 381.369 421.847 381.07 422.15C380.771 422.454 380.574 422.844 380.507 423.265C380.35 425.709 379.624 428.083 378.388 430.197C377.152 432.312 375.44 434.109 373.387 435.445V435.445Z" fill="#F5F5F5"/>
<path d="M492.782 423.318C492.782 423.318 511.885 427.047 526.047 436.592C526.047 436.592 511.494 419.549 489 416.485L492.782 423.318Z" fill="#263238"/>
<path d="M382.894 378.16C395.516 379.021 405.062 385.449 407.578 386.988L408.882 387.784L416.511 387.405C412.896 384.31 408.799 381.826 404.383 380.051C397.598 377.172 390.077 376.51 382.894 378.16V378.16Z" fill="#263238"/>
<path d="M406.757 317.707C421.388 320.523 429.864 320.497 436.84 304.784C445.968 284.142 460.312 250.824 460.312 250.824L467.536 194.374C452.905 192.301 439.839 200.399 431.35 220.454C422.64 241.031 405.896 283.268 405.896 283.268C395.295 282.394 384.615 282.538 374 281.781C369.097 281.429 364.612 280.986 360.53 277.948C357.951 275.79 355.247 273.788 352.432 271.949C350.548 270.789 348.562 269.802 346.499 269.002C344.683 268.209 342.984 267.169 341.453 265.912C341.004 265.524 340.45 265.279 339.862 265.207C338.766 265.207 337.997 266.342 337.775 267.424C337.496 268.941 337.706 270.507 338.375 271.897C339.04 273.28 339.95 274.53 341.061 275.587C341.426 275.952 341.831 276.526 341.505 276.891C341.368 277.007 341.202 277.083 341.026 277.113C340.849 277.143 340.668 277.125 340.501 277.061C336.703 276.311 332.954 275.336 329.273 274.14C327.571 273.559 325.715 273.624 324.057 274.322C321.254 275.626 320.68 279.421 321.097 282.499C323.822 302.958 346.708 304.862 362.682 308.331C374.3 310.861 385.919 313.39 397.564 315.816C400.589 316.481 403.666 317.12 406.757 317.707Z" fill="#874C4C"/>
<path d="M470.744 193.344C460.312 193.605 448.785 192.118 438.249 206.384C427.712 220.65 413.121 265.064 413.121 265.064C413.121 265.064 440.244 267.555 446.425 282.381L470.418 236.207L470.744 193.344Z" fill="#99ADF9"/>
<path d="M507.491 193.67C528.159 197.491 541.943 201.95 545.842 205.732C554.631 223.727 543.234 284.102 543.234 284.102L543.612 318.984L544.916 345.964C522.578 364.833 450.454 356.696 438.262 330.251C438.262 330.251 435.145 263.017 438.262 237.341C441.574 210.061 453.91 194.153 477.277 192.783L507.491 193.67Z" fill="#E0E0E0"/>
<path d="M456.583 158.475C472.11 158.475 484.697 145.888 484.697 130.361C484.697 114.834 472.11 102.247 456.583 102.247C441.055 102.247 428.468 114.834 428.468 130.361C428.468 145.888 441.055 158.475 456.583 158.475Z" fill="#263238"/>
<path d="M512.264 143.792C512.264 143.792 509.995 166.808 508.482 170.72C507.45 173.137 505.532 175.068 503.123 176.118L501.701 160.262L512.264 143.792Z" fill="#263238"/>
<path d="M502.666 112.261C504.318 111.879 506.035 111.878 507.687 112.26C509.339 112.642 510.882 113.396 512.198 114.465C516.593 118.051 515.797 130.895 512.198 143.792L503.344 145.839L502.666 112.261Z" fill="#263238"/>
<path d="M500.736 146.139C502.653 147.026 504.844 143.257 506.813 140.676C508.782 138.094 515.706 134.156 520.192 141.341C524.678 148.526 518.81 159.401 513.476 162.205C512.663 162.69 511.762 163.008 510.824 163.14C509.886 163.272 508.932 163.214 508.017 162.971C507.102 162.728 506.245 162.304 505.496 161.725C504.747 161.145 504.122 160.422 503.657 159.597L507.048 195.978C498.793 215.838 460.208 218.942 472.583 196.865L471.579 187.646C467.034 188.757 462.382 189.374 457.704 189.484C452.984 189.419 446.907 185.572 442.591 176.783C436.84 164.956 434.232 153.22 434.48 128.066C434.728 100.486 467.289 97.9695 485.584 106.824C503.879 115.678 500.736 146.139 500.736 146.139Z" fill="#9E6767"/>
<path d="M499.523 97.5522C493.248 95.6529 486.778 94.4675 480.237 94.0184C466.102 92.5579 451.732 91.4104 438.418 86.403C436.843 85.6123 435.068 85.3081 433.319 85.5293C430.046 86.3378 429.042 90.5237 429.277 93.888C429.493 97.0357 430.247 100.123 431.507 103.016C429.486 101.086 425.86 101.79 424.1 103.955C423.289 105.101 422.751 106.416 422.525 107.801C422.299 109.186 422.392 110.605 422.796 111.948C426.891 128.47 443.112 130.061 456.139 128.522C460.651 127.988 470.118 126.084 474.187 121.102C475.634 124.453 478.03 127.308 481.079 129.314C484.128 131.321 487.697 132.392 491.347 132.395C491.691 136.847 492.531 141.247 493.851 145.513C494.464 147.469 495.455 149.66 497.437 150.182C498.22 150.322 499.026 150.246 499.769 149.961C500.511 149.676 501.161 149.193 501.649 148.565C503.592 146.335 504.583 143.349 506.539 141.015C509.03 138.054 509.603 117.725 509.682 113.97C509.71 113.675 509.814 113.392 509.982 113.148C512.59 108.401 508.117 101.412 503.97 99.4169C502.528 98.7039 501.043 98.0811 499.523 97.5522V97.5522Z" fill="#263238"/>
<path d="M508.286 113.591C508.912 114.227 509.659 114.731 510.484 115.071C511.309 115.411 512.193 115.581 513.085 115.571C513.977 115.56 514.858 115.37 515.675 115.011C516.492 114.652 517.227 114.132 517.838 113.482C518.449 112.832 518.922 112.065 519.229 111.227C519.536 110.39 519.671 109.499 519.625 108.608C519.579 107.717 519.354 106.844 518.963 106.042C518.572 105.241 518.023 104.526 517.349 103.942L508.286 113.591Z" fill="#263238"/>
<path d="M471.514 187.776C471.514 187.776 485.271 183.603 490.604 179.952C494.164 177.513 496.837 170.628 497.502 168.281C497.669 173.008 496.43 177.677 493.942 181.699C490.252 187.372 472.179 193.774 472.179 193.774L471.514 187.776Z" fill="#874C4C"/>
<path d="M469.049 147C469.092 147.479 469.229 147.945 469.452 148.371C469.675 148.797 469.98 149.175 470.35 149.482C470.719 149.79 471.146 150.022 471.605 150.164C472.065 150.307 472.548 150.357 473.026 150.312C473.772 150.26 474.485 149.987 475.073 149.527C475.662 149.066 476.099 148.441 476.329 147.73C476.559 147.019 476.57 146.255 476.363 145.538C476.155 144.82 475.737 144.181 475.163 143.703C474.589 143.225 473.885 142.929 473.141 142.855C472.398 142.78 471.649 142.93 470.991 143.285C470.334 143.639 469.797 144.183 469.451 144.845C469.105 145.507 468.965 146.258 469.049 147V147Z" fill="#263238"/>
<path d="M479.168 136.359L471.852 133.177C471.449 134.178 471.446 135.296 471.844 136.298C472.242 137.301 473.011 138.112 473.991 138.563C474.474 138.768 474.994 138.873 475.519 138.872C476.044 138.871 476.564 138.765 477.047 138.559C477.53 138.354 477.967 138.053 478.331 137.675C478.695 137.297 478.98 136.85 479.168 136.359V136.359Z" fill="#263238"/>
<path d="M476.064 165.608L464.693 171.385C465.04 172.153 465.538 172.843 466.158 173.414C466.778 173.985 467.506 174.425 468.3 174.707C469.094 174.99 469.937 175.109 470.778 175.058C471.619 175.007 472.442 174.787 473.195 174.41C474.723 173.603 475.877 172.233 476.413 170.59C476.948 168.947 476.823 167.16 476.064 165.608V165.608Z" fill="#874C4C"/>
<path d="M476.208 168.216C474.664 168.219 473.185 168.835 472.095 169.928C471.004 171.021 470.392 172.501 470.392 174.045C470.394 174.391 470.429 174.736 470.496 175.075C471.435 175.064 472.359 174.836 473.196 174.41C474.312 173.834 475.238 172.948 475.862 171.858C476.487 170.769 476.783 169.522 476.716 168.268C476.547 168.294 476.39 168.216 476.208 168.216Z" fill="#F28F8F"/>
<path d="M444.351 134.677L437.74 139.267C438.022 139.708 438.39 140.088 438.822 140.385C439.254 140.681 439.741 140.888 440.254 140.992C440.767 141.097 441.296 141.097 441.809 140.994C442.323 140.89 442.81 140.684 443.243 140.389C444.124 139.76 444.73 138.817 444.937 137.754C445.143 136.691 444.933 135.59 444.351 134.677V134.677Z" fill="#263238"/>
<path d="M442.825 149.06C442.932 149.757 443.24 150.408 443.713 150.931C444.186 151.454 444.803 151.827 445.486 152.003C446.168 152.179 446.888 152.15 447.555 151.92C448.222 151.691 448.806 151.27 449.236 150.711C449.666 150.152 449.922 149.479 449.973 148.776C450.024 148.073 449.866 147.37 449.521 146.755C449.176 146.14 448.657 145.64 448.03 145.317C447.403 144.995 446.695 144.863 445.994 144.94C445.515 145.001 445.052 145.156 444.633 145.396C444.214 145.637 443.847 145.958 443.553 146.341C443.258 146.724 443.042 147.161 442.917 147.628C442.793 148.095 442.761 148.581 442.825 149.06V149.06Z" fill="#263238"/>
<path d="M459.138 147.378L460.247 167.016L449.671 164.682L459.138 147.378Z" fill="#874C4C"/>
<path d="M545.841 205.732C558.295 213.752 562.989 228.278 556.978 249.664C550.379 273.136 538.004 302.437 524.586 322.57C519.175 330.681 516.241 333.002 491.869 329.09C479.533 327.095 467.236 324.448 455.031 321.775C440.413 318.567 423.331 314.316 411.634 308.735C407.707 306.912 404.166 304.353 401.202 301.198C400.207 300.158 399.433 298.926 398.927 297.579C398.421 296.231 398.194 294.795 398.258 293.357C398.323 291.918 398.678 290.508 399.303 289.211C399.928 287.915 400.809 286.758 401.893 285.811C414.046 274.231 417.384 284.415 426.225 287.336C426.225 287.336 431.441 287.336 433.932 287.675C436.188 287.949 436.345 287.571 438.235 288.797C442.056 291.261 444.521 293.296 446.842 293.635C462.346 295.917 498.285 298.238 498.285 298.238L521.131 242.961C521.131 242.961 533.949 203.646 545.841 205.732Z" fill="#9E6767"/>
<path d="M442.161 291.431C441.743 291.288 439.813 287.297 439.24 286.489C437.943 284.581 436.495 282.78 434.91 281.103C433.408 279.498 431.61 278.196 429.616 277.27C426.708 276.109 423.448 275.496 420.488 274.662C420.074 274.494 419.616 274.466 419.184 274.583C418.951 274.688 418.754 274.859 418.617 275.074C418.481 275.29 418.41 275.541 418.415 275.796C418.421 276.305 418.546 276.805 418.78 277.257C419.564 278.977 420.749 280.484 422.235 281.651C423.37 282.564 426.826 286.306 427.791 287.415C427.712 287.376 442.161 292.422 442.161 291.431Z" fill="#9E6767"/>
<path d="M539.439 202.12C548.906 204.467 557.082 207.492 560.133 220.519C563.185 233.546 562.024 240.34 550.379 270.397C543.299 288.653 537.652 299.659 537.652 299.659C537.652 299.659 530.871 282.446 504.922 280.543L521.757 230C521.757 230 531.537 207.936 539.439 202.12Z" fill="#99ADF9"/>
<path d="M189.576 424.283C189.576 424.283 146.896 408.635 141.628 404.384C137.22 400.811 139.867 392.256 133.804 390.796C126.775 389.114 121.755 392.882 117.243 397.029C112.966 400.941 107.385 402.727 96.8615 399.089C86.3382 395.451 76.18 390.274 71.9159 392.335C67.6519 394.395 70.4163 397.72 88.8679 406.196C99.4434 411.073 112.914 416.758 121.546 420.162C127.776 422.478 133.653 425.652 139.007 429.59C150.26 437.414 152.334 439.148 165.647 447.129C192.262 463.077 207.923 467.275 229.1 463.259L189.576 424.283Z" fill="#FFA8A7"/>
<path d="M149.621 408.543C141.132 413.433 137.037 418.819 136.581 428.221C136.581 428.221 142.306 432.654 151.368 438.926C162.218 446.437 188.48 463.533 206.019 465.319C233.22 468.084 241.84 459.895 241.84 459.895L149.621 408.543Z" fill="#455A64"/>
<path d="M141.745 414.594C155.672 438.066 189.693 452.631 200.425 453.714C196.657 450.623 191.115 440.1 185.859 428.69L149.621 408.543C146.697 410.137 144.039 412.179 141.745 414.594V414.594Z" fill="#37474F"/>
<path d="M61.9139 390.378C61.7043 389.544 61.6858 388.674 61.8596 387.832C62.0335 386.989 62.3953 386.197 62.918 385.515C66.6735 381.068 71.4723 378.721 74.7453 377.065C78.7168 375.219 83.0893 374.402 87.4593 374.691C95.8049 375.187 102.977 381.407 111.323 381.889C117.543 382.255 123.202 379.086 129.266 377.612C131.176 377.15 133.146 376.979 135.107 377.104C136.777 377.208 139.411 378.408 140.011 379.777C140.839 381.44 141.002 383.357 140.467 385.136C140.089 386.258 137.781 388.396 136.112 389.57C133.843 391.187 131 391.643 127.609 392.647C119.055 395.112 80.7698 396.064 61.9139 390.378Z" fill="#37474F"/>
<path d="M141.823 402.049C141.823 402.806 141.954 403.536 142.032 404.305C142.149 405.335 141.588 405.609 140.728 406.248C137.22 408.661 132.786 408.426 128.783 407.735C125.667 407.187 122.498 406.313 119.381 406.913C115.678 407.644 112.718 410.356 109.953 412.938C109.348 413.507 108.841 414.172 108.454 414.907C108.454 414.907 86.9247 405.714 77.1578 400.563C72.2026 397.955 66.478 395.503 62.5791 391.357C62.3574 391.135 63.531 389.674 63.6483 389.531C64.9655 388.115 66.6942 387.148 68.5905 386.766C71.6785 385.964 74.8897 385.747 78.0575 386.128C82.8693 386.845 87.5507 388.11 92.3233 389.048C96.6036 389.889 100.926 390.499 105.272 390.874C110.007 391.291 114.766 391.37 119.512 391.109C123.962 391.008 128.354 390.075 132.46 388.357C134.062 387.66 135.559 386.743 136.907 385.632C137.688 384.848 138.371 383.972 138.941 383.024C139.606 382.072 140.011 380.416 140.689 381.824C142.332 385.058 142.671 390.04 142.436 393.665C142.28 396.155 141.954 398.633 141.862 401.137C141.81 401.436 141.81 401.736 141.823 402.049Z" fill="#99ADF9"/>
<path opacity="0.2" d="M141.823 402.049C141.823 402.806 141.954 403.536 142.032 404.305C142.149 405.335 141.588 405.609 140.728 406.248C137.22 408.661 132.786 408.426 128.783 407.735C125.667 407.187 122.498 406.313 119.381 406.913C115.678 407.644 112.718 410.356 109.953 412.938C109.348 413.507 108.841 414.172 108.454 414.907C108.454 414.907 86.9247 405.714 77.1578 400.563C72.2026 397.955 66.478 395.503 62.5791 391.357C62.3574 391.135 63.531 389.674 63.6483 389.531C64.9655 388.115 66.6942 387.148 68.5905 386.766C71.6785 385.964 74.8897 385.747 78.0575 386.128C82.8693 386.845 87.5507 388.11 92.3233 389.048C96.6036 389.889 100.926 390.499 105.272 390.874C110.007 391.291 114.766 391.37 119.512 391.109C123.962 391.008 128.354 390.075 132.46 388.357C134.062 387.66 135.559 386.743 136.907 385.632C137.688 384.848 138.371 383.972 138.941 383.024C139.606 382.072 140.011 380.416 140.689 381.824C142.332 385.058 142.671 390.04 142.436 393.665C142.28 396.155 141.954 398.633 141.862 401.137C141.81 401.436 141.81 401.736 141.823 402.049Z" fill="black"/>
<path d="M85.7514 387.51C81.735 393.026 81.7611 402.793 81.7611 402.793C81.7611 402.793 74.8499 399.898 68.0561 396.103C61.5361 392.465 61.9142 390.379 61.9142 390.379C62.2417 389.251 62.906 388.25 63.8181 387.51C66.2863 385.529 69.4315 384.593 72.581 384.902C77.0596 385.241 81.4813 386.117 85.7514 387.51Z" fill="#FAFAFA"/>
<path d="M85.4641 399.52C84.9676 401.086 84.8251 402.743 85.0468 404.371C85.679 404.855 86.4085 405.198 87.1854 405.375C87.1485 403.699 87.3237 402.025 87.707 400.393C88.1503 399.024 85.9466 398.177 85.4641 399.52Z" fill="#FAFAFA"/>
<path d="M92.0102 402.532C91.4962 404.094 91.3402 405.752 91.5538 407.383C92.2063 407.852 92.947 408.185 93.7314 408.361C93.6591 406.692 93.8349 405.022 94.253 403.405C94.6964 401.971 92.4926 401.176 92.0102 402.532Z" fill="#FAFAFA"/>
<path d="M98.5566 405.544C98.0584 407.092 97.9157 408.732 98.1393 410.343C98.7655 410.846 99.4961 411.202 100.278 411.386C100.241 409.714 100.416 408.045 100.799 406.418C101.243 404.97 99.1043 404.24 98.5566 405.544Z" fill="#FAFAFA"/>
<path d="M140.65 381.798C140.619 381.08 140.398 380.382 140.011 379.777C140.011 379.777 137.859 384.198 130.165 386.753C122.863 389.179 112.431 390.352 97.3828 386.884C82.3347 383.415 73.637 380.181 66.8301 382.881C60.0232 385.58 61.914 390.379 61.914 390.379C61.914 390.379 65.161 384.393 74.7063 385.515C83.9125 386.597 97.448 391.474 110.045 391.93C123.202 392.426 136.49 390.744 140.65 381.798Z" fill="#E0E0E0"/>
<path d="M293.648 410.343C287.128 389.818 269.406 377.86 253.641 364.638C237.876 351.415 212.722 329.26 212.722 329.26L124.05 311.369C118.521 322.688 112.966 344.321 112.939 360.778C112.939 376.126 117.595 396.69 144.457 416.628C160.744 428.716 173.745 438.209 185.416 445.629C197.752 453.453 224.979 467.262 241.031 461.838C245.982 460.286 250.14 456.88 252.639 452.334C255.137 447.787 255.781 442.45 254.436 437.44V437.44C256.327 437.609 258.205 437.714 259.952 437.727C261.987 437.792 263.864 437.727 265.312 437.727C270.627 437.872 275.926 437.068 280.96 435.353C292.096 431.285 297.416 422.248 293.648 410.343Z" fill="#455A64"/>
<path d="M258.27 436.84C256.536 436.84 254.645 436.723 252.767 436.54C242.857 415.402 188.441 372.149 188.441 372.149C192.835 370.01 203.02 364.559 206.436 358.431C205.041 366.255 200.555 370.167 196.213 373.374C202.889 379.36 230.951 403.014 238.449 410.121C246.312 417.567 254.475 426.226 258.27 436.84Z" fill="#37474F"/>
<path d="M194.166 199.121C205.746 200.034 211.261 203.255 222.698 215.89C234.134 228.526 255.298 251.398 259.105 257.331C262.913 263.265 273.984 276.096 257.319 285.706C240.654 295.317 205.015 298.538 205.015 298.538L194.166 199.121Z" fill="#F28F8F"/>
<path d="M214.508 269.993C229.987 257.266 224.94 240.666 219.242 229.491C207.936 207.14 196.174 198.351 191.271 198.43L159.975 194.374C147.373 196.344 135.201 200.454 123.985 206.528C111.753 213.595 115.013 221.654 116.643 228.982C121.051 248.921 126.619 260.278 128.275 266.316C129.931 272.353 132.982 281.768 130.505 291.548C129.54 295.33 126.984 299.007 123.111 309.439C119.703 318.011 117.084 326.876 115.287 335.923C115.287 335.923 140.167 358.717 184.06 352.445C216.373 347.829 220.481 336.028 220.481 336.028L212.904 296.282C213.674 283.098 213.856 278.313 214.508 269.993Z" fill="#99ADF9"/>
<g opacity="0.5">
<path d="M214.508 269.993C229.987 257.266 224.94 240.666 219.242 229.491C207.936 207.14 196.174 198.351 191.271 198.43L159.975 194.374C147.373 196.344 135.201 200.454 123.985 206.528C111.753 213.595 115.013 221.654 116.643 228.982C121.051 248.921 126.619 260.278 128.275 266.316C129.931 272.353 132.982 281.768 130.505 291.548C129.54 295.33 126.984 299.007 123.111 309.439C119.703 318.011 117.084 326.876 115.287 335.923C115.287 335.923 140.167 358.717 184.06 352.445C216.373 347.829 220.481 336.028 220.481 336.028L212.904 296.282C213.674 283.098 213.856 278.313 214.508 269.993Z" fill="white"/>
</g>
<path d="M204.728 98.6998C188.128 89.7413 166.756 93.2751 158.358 106.693C158.358 106.693 149.895 105.115 141.406 112.522C131.822 120.946 131.913 133.647 131.782 145.318C131.626 158.919 126.566 163 124.715 173.458C122.863 183.916 129.931 190.814 137.664 191.714C137.664 191.714 135.056 182.143 137.807 177.709C137.807 177.709 136.972 191.414 150.012 193.735C160.51 195.613 168.399 188.519 168.399 188.519C168.399 188.519 155.281 186.237 153.025 178.244L154.446 164.904L178.205 190.514C191.884 202.381 211.105 194.935 211.666 189.484C211.666 189.484 196.174 173.484 217.077 153.481C237.98 133.477 221.315 107.645 204.728 98.6998Z" fill="#37474F"/>
<path d="M216.634 159.088C213.648 182.964 205.276 188.089 201.22 189.393C197.165 190.697 189.732 188.897 182.573 186.954L181.413 198.338C181.413 198.338 192.588 209.357 189.706 211.991C184.334 216.894 170.146 214.599 163.287 210.805C158.504 208.361 154.481 204.654 151.655 200.086C151.065 199.113 150.864 197.953 151.095 196.839L154.485 164.891C154.485 164.891 150.664 167.147 144.914 163.274C139.698 159.792 138.589 148.93 143.427 144.248C146.883 140.936 153.285 141.028 156.467 147.039C158.149 151.394 157.145 155.346 160.079 155.215C163.013 155.085 164.265 152.346 164.734 150.077C165.204 147.808 165.478 146.165 166.038 143.205C173.289 142.527 181.334 132.773 182.99 125.758C187.776 128.548 192.875 130.804 197.947 131.065C205.928 131.456 210.205 130.361 214.769 125.119C215.554 126.526 216.125 128.042 216.464 129.618C217.191 132.797 217.627 136.035 217.768 139.293C217.931 145.911 217.552 152.532 216.634 159.088Z" fill="#FFA8A7"/>
<path d="M182.56 186.928C174.958 185.142 159.584 178.987 157.784 172.467C157.784 172.467 158.201 176.483 162.531 181.021C166.86 185.559 182.091 191.727 182.091 191.727L182.56 186.928Z" fill="#F28F8F"/>
<path d="M190.645 150.977C190.588 151.63 190.34 152.251 189.932 152.764C189.525 153.276 188.975 153.658 188.352 153.86C187.729 154.063 187.061 154.078 186.429 153.903C185.798 153.728 185.232 153.372 184.802 152.878C184.372 152.384 184.096 151.774 184.01 151.125C183.924 150.475 184.031 149.815 184.318 149.226C184.604 148.637 185.058 148.145 185.622 147.812C186.186 147.479 186.835 147.319 187.49 147.352C187.935 147.382 188.37 147.499 188.771 147.698C189.171 147.896 189.527 148.172 189.821 148.509C190.114 148.846 190.338 149.237 190.479 149.661C190.621 150.084 190.677 150.532 190.645 150.977V150.977Z" fill="#263238"/>
<path d="M213.139 152.216C213.124 152.62 213.029 153.017 212.86 153.385C212.692 153.753 212.452 154.083 212.155 154.358C211.859 154.633 211.511 154.847 211.131 154.987C210.752 155.128 210.348 155.192 209.944 155.176C209.53 155.177 209.121 155.088 208.744 154.916C208.367 154.744 208.032 154.493 207.761 154.18C207.49 153.867 207.29 153.499 207.174 153.102C207.058 152.704 207.029 152.287 207.088 151.877C207.1 151.472 207.192 151.074 207.359 150.705C207.525 150.336 207.764 150.003 208.059 149.727C208.355 149.45 208.703 149.235 209.082 149.094C209.462 148.953 209.866 148.888 210.27 148.904C211.089 148.964 211.851 149.346 212.389 149.967C212.927 150.588 213.196 151.397 213.139 152.216Z" fill="#263238"/>
<path d="M198.834 145.318L197.243 167.942L208.158 165.686L198.834 145.318Z" fill="#F28F8F"/>
<path d="M179.261 140.832L185.899 135.89C186.543 136.803 186.81 137.929 186.645 139.034C186.479 140.139 185.895 141.138 185.012 141.823C184.573 142.147 184.074 142.378 183.543 142.504C183.013 142.63 182.462 142.647 181.925 142.554C181.388 142.461 180.875 142.261 180.417 141.965C179.959 141.669 179.566 141.284 179.261 140.832V140.832Z" fill="#263238"/>
<path d="M184.92 167.851L195.105 172.558C194.431 173.917 193.26 174.964 191.834 175.481C190.409 175.999 188.838 175.947 187.45 175.336C186.781 175.024 186.182 174.579 185.69 174.029C185.197 173.478 184.821 172.834 184.585 172.134C184.349 171.435 184.256 170.694 184.314 169.958C184.372 169.222 184.578 168.505 184.92 167.851V167.851Z" fill="#874C4C"/>
<path d="M187.45 175.336C186.508 174.902 185.712 174.204 185.159 173.327C184.606 172.45 184.319 171.431 184.334 170.394C184.942 170.238 185.574 170.194 186.198 170.263C187.512 170.436 188.711 171.102 189.551 172.127C190.392 173.151 190.811 174.457 190.723 175.779C189.612 175.971 188.47 175.816 187.45 175.336V175.336Z" fill="#F28F8F"/>
<path d="M211.105 137.089L217.116 142.866C216.758 143.275 216.321 143.607 215.831 143.841C215.341 144.076 214.808 144.208 214.265 144.23C213.722 144.252 213.18 144.163 212.673 143.969C212.166 143.775 211.703 143.48 211.313 143.101C210.515 142.316 210.048 141.255 210.009 140.137C209.971 139.018 210.363 137.927 211.105 137.089V137.089Z" fill="#263238"/>
<path d="M225.983 223.271C224.454 223.038 222.939 222.72 221.445 222.319C218.687 221.469 215.798 221.124 212.917 221.302C209.944 221.563 205.967 222.801 203.867 224.901C202.994 225.761 202.668 227.809 204.115 228.317C204.062 228.657 204.106 229.005 204.242 229.322C204.378 229.638 204.601 229.909 204.885 230.104C205.567 230.559 206.399 230.732 207.206 230.586C207.206 231.395 208.51 231.89 209.814 231.773C211.636 231.285 213.522 231.074 215.408 231.147C219.385 231.264 220.063 232.777 220.063 232.777" fill="#455A64"/>
<path d="M210.322 227.978C209.44 227.818 208.53 227.998 207.775 228.482C207.02 228.966 206.477 229.718 206.254 230.586C206.571 230.606 206.889 230.606 207.206 230.586C207.322 229.848 207.702 229.178 208.275 228.698C208.848 228.219 209.575 227.963 210.322 227.978Z" fill="#37474F"/>
<path d="M207.336 225.514C206.527 225.471 205.724 225.668 205.028 226.081C204.332 226.494 203.773 227.105 203.424 227.835C203.587 228.053 203.808 228.22 204.063 228.317C204.29 227.59 204.717 226.941 205.296 226.445C205.875 225.949 206.582 225.626 207.336 225.514V225.514Z" fill="#37474F"/>
<path d="M260.957 213.426L254.437 215.238L241.397 218.863L240.236 219.15L237.211 219.659C235.079 219.857 232.965 220.215 230.886 220.728H230.43C229.599 220.763 228.775 220.903 227.979 221.145C227.45 221.551 226.945 221.986 226.466 222.449L225.084 223.753C224.927 223.923 224.771 224.092 224.614 224.288L220.546 231.395C219.657 232.514 218.453 233.34 217.09 233.768C214.958 234.221 213.05 235.401 211.692 237.106C211.548 236.89 211.355 236.712 211.128 236.587C210.901 236.462 210.647 236.394 210.388 236.389C210.332 236.018 210.183 235.666 209.955 235.368C209.727 235.069 209.427 234.833 209.084 234.681C208.252 234.339 207.323 234.315 206.476 234.616C206.476 233.951 205.341 233.09 203.072 233.599C198.586 234.603 195.939 236.389 191.271 239.336C185.455 243.013 183.577 246.365 183.669 249.116C183.646 250.001 183.863 250.875 184.297 251.647C184.731 252.418 185.365 253.058 186.133 253.498C186.133 253.498 168.047 270.789 192.836 285.472C216.908 299.724 248.386 284.494 258.218 261.674C260.796 255.617 262.402 249.192 262.978 242.635C264.321 230.078 261.83 220.376 260.957 213.426Z" fill="#455A64"/>
<path d="M211.157 241.436C211.157 241.436 215.069 239.688 216.868 241.827C217.325 241.611 217.827 241.514 218.331 241.544C218.835 241.573 219.323 241.729 219.75 241.996C220.102 242.227 220.371 242.564 220.519 242.958C220.666 243.351 220.685 243.782 220.572 244.187C220.853 244.208 221.123 244.306 221.352 244.469C221.582 244.632 221.763 244.855 221.876 245.113C222.024 245.596 222.057 246.108 221.971 246.606C221.885 247.105 221.682 247.576 221.38 247.982C220.675 249.308 219.712 250.481 218.548 251.43C217.383 252.38 216.041 253.087 214.599 253.511C216.002 254.32 217.191 255.451 218.069 256.812C218.947 258.173 219.487 259.723 219.646 261.335C220.546 267.646 218.525 270.919 218.525 270.919C226.839 268.902 234.206 264.086 239.389 257.279C250.42 243.118 246.43 218.159 246.43 218.159L227.965 221.276C226.025 222.302 224.346 223.759 223.057 225.536C221.768 227.313 220.905 229.362 220.533 231.525C216.718 231.884 213.064 233.232 209.931 235.437C210.13 235.759 210.275 236.112 210.361 236.48C210.616 236.506 210.863 236.582 211.087 236.705C211.311 236.829 211.508 236.996 211.665 237.198C212.139 237.835 212.35 238.63 212.255 239.418C212.161 240.206 211.768 240.928 211.157 241.436V241.436Z" fill="#99ADF9"/>
<path opacity="0.3" d="M211.157 241.436C211.157 241.436 215.069 239.688 216.868 241.827C217.325 241.611 217.827 241.514 218.331 241.544C218.835 241.573 219.323 241.729 219.75 241.996C220.102 242.227 220.371 242.564 220.519 242.958C220.666 243.351 220.685 243.782 220.572 244.187C220.853 244.208 221.123 244.306 221.352 244.469C221.582 244.632 221.763 244.855 221.876 245.113C222.024 245.596 222.057 246.108 221.971 246.606C221.885 247.105 221.682 247.576 221.38 247.982C220.675 249.308 219.712 250.481 218.548 251.43C217.383 252.38 216.041 253.087 214.599 253.511C216.002 254.32 217.191 255.451 218.069 256.812C218.947 258.173 219.487 259.723 219.646 261.335C220.546 267.646 218.525 270.919 218.525 270.919C226.839 268.902 234.206 264.086 239.389 257.279C250.42 243.118 246.43 218.159 246.43 218.159L227.965 221.276C226.025 222.302 224.346 223.759 223.057 225.536C221.768 227.313 220.905 229.362 220.533 231.525C216.718 231.884 213.064 233.232 209.931 235.437C210.13 235.759 210.275 236.112 210.361 236.48C210.616 236.506 210.863 236.582 211.087 236.705C211.311 236.829 211.508 236.996 211.665 237.198C212.139 237.835 212.35 238.63 212.255 239.418C212.161 240.206 211.768 240.928 211.157 241.436V241.436Z" fill="black"/>
<path opacity="0.1" d="M238.489 234.72C235.463 234.603 231.304 235.346 228.917 237.185C227.926 237.941 227.352 239.949 228.735 240.653C228.639 240.987 228.638 241.341 228.733 241.675C228.827 242.009 229.013 242.31 229.269 242.544C229.898 243.093 230.718 243.374 231.551 243.326C231.473 244.148 232.673 244.878 234.003 244.852C235.828 244.852 236.337 244.239 239.714 244.943C241.504 245.346 243.141 246.251 244.435 247.551C245.551 244.101 246.307 240.543 246.691 236.937C244.129 235.667 241.342 234.914 238.489 234.72V234.72Z" fill="black"/>
<path d="M247.147 234.916C244.455 233.533 241.508 232.717 238.489 232.516C235.463 232.386 231.304 233.142 228.917 234.981C227.926 235.737 227.352 237.745 228.735 238.449C228.639 238.783 228.638 239.137 228.733 239.471C228.827 239.805 229.013 240.106 229.269 240.34C229.901 240.884 230.718 241.165 231.551 241.123C231.473 241.944 232.673 242.674 234.003 242.648C235.828 242.648 236.337 242.035 239.714 242.74C241.785 243.203 243.649 244.329 245.022 245.947L251.111 236.559C249.738 236.145 248.41 235.595 247.147 234.916V234.916Z" fill="#455A64"/>
<path d="M234.642 238.971C234.173 238.746 233.651 238.651 233.133 238.697C232.614 238.742 232.117 238.927 231.695 239.232C231.398 239.43 231.149 239.692 230.966 239.999C230.784 240.306 230.672 240.65 230.639 241.005C230.94 241.067 231.245 241.106 231.551 241.123C231.617 239.727 233.168 238.919 234.642 238.971Z" fill="#37474F"/>
<path d="M228.057 237.732C228.187 238.047 228.428 238.302 228.735 238.449C228.949 237.977 229.281 237.566 229.699 237.258C230.116 236.95 230.606 236.754 231.121 236.689C230.564 236.586 229.989 236.628 229.453 236.811C228.916 236.993 228.435 237.311 228.057 237.732V237.732Z" fill="#37474F"/>
<path opacity="0.1" d="M263.213 230.273C262.743 223.493 261.517 217.885 260.957 213.426L254.437 215.238L241.397 218.863L240.236 219.15L237.211 219.659C235.079 219.857 232.965 220.215 230.886 220.728H230.43C229.598 220.757 228.773 220.897 227.978 221.145C227.564 221.349 227.163 221.579 226.779 221.836C227.639 222.906 230.886 226.348 238.045 227.913C246.574 229.791 255.623 226.935 255.623 226.935C256.366 228.229 257.504 229.25 258.869 229.851C260.235 230.452 261.757 230.6 263.213 230.273V230.273Z" fill="black"/>
<path d="M248.255 187.372C247.63 185.038 244.709 184.021 240.04 183.929C236.35 183.851 232.829 184.972 227.391 182.534C221.954 180.096 217.455 181.23 215.981 186.707C214.508 192.184 215.76 198.912 221.732 201.246C227.261 203.411 236.246 202.303 241.292 198.847C246.339 195.391 248.255 187.372 248.255 187.372Z" fill="#37474F"/>
<path d="M232.112 185.051C232.235 184.699 232.327 184.337 232.386 183.968C230.654 183.747 228.965 183.264 227.378 182.534C221.928 180.082 217.442 181.23 215.982 186.707C215.477 188.575 215.313 190.518 215.499 192.444C216.573 193.097 217.773 193.514 219.02 193.67C219.514 193.768 220.024 193.745 220.507 193.604C220.991 193.464 221.433 193.209 221.797 192.862C222.593 191.897 222.306 190.254 223.101 189.38C223.897 188.506 225.709 188.702 227.131 188.637C228.215 188.57 229.258 188.198 230.14 187.564C231.021 186.929 231.705 186.058 232.112 185.051V185.051Z" fill="#99ADF9"/>
<path opacity="0.4" d="M232.112 185.051C232.235 184.699 232.327 184.337 232.386 183.968C230.654 183.747 228.965 183.264 227.378 182.534C221.928 180.082 217.442 181.23 215.982 186.707C215.477 188.575 215.313 190.518 215.499 192.444C216.573 193.097 217.773 193.514 219.02 193.67C219.514 193.768 220.024 193.745 220.507 193.604C220.991 193.464 221.433 193.209 221.797 192.862C222.593 191.897 222.306 190.254 223.101 189.38C223.897 188.506 225.709 188.702 227.131 188.637C228.215 188.57 229.258 188.198 230.14 187.564C231.021 186.929 231.705 186.058 232.112 185.051V185.051Z" fill="black"/>
<path d="M263.017 197.791C260.409 192.17 258.935 190.919 251.685 188.363C244.435 185.807 239.949 186.094 233.599 190.019C229.582 192.496 227.965 199.069 227.965 199.069C226.682 199.236 225.445 199.656 224.326 200.305C223.206 200.954 222.227 201.819 221.445 202.85C218.642 207.153 220.78 214.821 222.593 217.403C225.544 221.539 229.959 224.397 234.942 225.396C244.265 227.3 251.789 226.7 256.471 221.941C262.339 216.008 264.921 201.885 263.017 197.791Z" fill="#455A64"/>
<path d="M261.648 206.906C261.78 206.24 261.841 205.563 261.83 204.884C261.83 202.746 261.348 199.89 259.9 198.26C258.779 196.594 257.155 195.328 255.265 194.648C253.374 193.968 251.317 193.909 249.39 194.479C247.063 194.958 244.999 196.288 243.6 198.208C242.296 200.177 241.879 202.433 243.705 204.18C244.397 204.744 245.05 205.354 245.661 206.006C246.495 207.062 246.847 208.444 247.63 209.54C248.515 210.74 249.786 211.601 251.229 211.978C252.66 212.349 254.152 212.416 255.61 212.174C256.54 212.117 257.448 211.872 258.28 211.452C259.112 211.033 259.85 210.449 260.448 209.735C261.042 208.887 261.451 207.923 261.648 206.906V206.906Z" fill="#99ADF9"/>
<path opacity="0.3" d="M261.648 206.906C261.78 206.24 261.841 205.563 261.83 204.884C261.83 202.746 261.348 199.89 259.9 198.26C258.779 196.594 257.155 195.328 255.265 194.648C253.374 193.968 251.317 193.909 249.39 194.479C247.063 194.958 244.999 196.288 243.6 198.208C242.296 200.177 241.879 202.433 243.705 204.18C244.397 204.744 245.05 205.354 245.661 206.006C246.495 207.062 246.847 208.444 247.63 209.54C248.515 210.74 249.786 211.601 251.229 211.978C252.66 212.349 254.152 212.416 255.61 212.174C256.54 212.117 257.448 211.872 258.28 211.452C259.112 211.033 259.85 210.449 260.448 209.735C261.042 208.887 261.451 207.923 261.648 206.906V206.906Z" fill="black"/>
<path d="M249.977 201.794C249.98 202.221 249.855 202.638 249.62 202.994C249.384 203.35 249.049 203.628 248.655 203.792C248.261 203.957 247.827 204 247.409 203.918C246.99 203.835 246.606 203.63 246.304 203.328C246.002 203.027 245.797 202.642 245.715 202.224C245.632 201.805 245.676 201.371 245.84 200.978C246.005 200.584 246.282 200.248 246.638 200.013C246.994 199.777 247.412 199.653 247.838 199.655C248.405 199.659 248.947 199.885 249.347 200.286C249.747 200.686 249.974 201.228 249.977 201.794V201.794Z" fill="#263238"/>
<path d="M234.824 197.791C234.824 198.214 234.699 198.627 234.464 198.979C234.229 199.331 233.895 199.605 233.504 199.767C233.114 199.928 232.684 199.971 232.269 199.888C231.854 199.806 231.473 199.602 231.174 199.303C230.875 199.004 230.671 198.623 230.588 198.208C230.506 197.793 230.548 197.363 230.71 196.972C230.872 196.582 231.146 196.248 231.498 196.013C231.849 195.778 232.263 195.652 232.686 195.652C233.253 195.652 233.797 195.878 234.198 196.279C234.599 196.68 234.824 197.224 234.824 197.791V197.791Z" fill="#263238"/>
<path d="M229.647 215.408H229.504C229.438 215.395 229.375 215.37 229.319 215.333C229.263 215.296 229.214 215.248 229.177 215.192C229.139 215.137 229.113 215.074 229.1 215.008C229.087 214.942 229.087 214.874 229.1 214.808L230.052 209.866C230.078 209.733 230.155 209.615 230.268 209.539C230.38 209.464 230.518 209.436 230.652 209.462C230.785 209.488 230.902 209.565 230.978 209.678C231.054 209.79 231.082 209.928 231.056 210.061L230.104 215.004C230.08 215.11 230.023 215.207 229.941 215.279C229.859 215.352 229.756 215.397 229.647 215.408V215.408Z" fill="#263238"/>
<path d="M232.712 204.089C230.104 203.294 228.083 203.424 227.587 204.402C226.792 206.045 227.978 208.444 228.8 209.396C229.259 209.802 229.797 210.108 230.381 210.295C230.965 210.481 231.581 210.544 232.19 210.479C233.664 210.322 236.024 209.37 236.467 207.871C236.911 206.371 235.515 204.95 232.712 204.089Z" fill="#263238"/>
<path d="M228.591 204.285C228.245 204.492 227.988 204.819 227.868 205.204C227.748 205.588 227.773 206.004 227.939 206.371C228.239 206.906 228.761 204.911 230.182 204.911C231.801 205.078 233.361 205.609 234.746 206.462C235.633 207.036 235.659 205.993 233.898 205.158C231.747 204.011 229.712 203.698 228.591 204.285Z" fill="#37474F"/>
<path d="M232.79 215.89C232.477 215.89 232.177 215.89 231.864 215.89C230.941 215.879 230.029 215.685 229.181 215.32C228.333 214.955 227.565 214.427 226.922 213.765C226.839 213.658 226.802 213.522 226.819 213.387C226.836 213.253 226.906 213.131 227.013 213.048C227.12 212.965 227.256 212.928 227.391 212.945C227.525 212.962 227.647 213.032 227.73 213.139C228.866 214.225 230.371 214.84 231.942 214.86C232.959 214.997 233.992 214.927 234.981 214.654C235.969 214.38 236.892 213.909 237.693 213.269C237.742 213.223 237.799 213.187 237.862 213.163C237.925 213.139 237.992 213.127 238.059 213.129C238.126 213.131 238.192 213.146 238.254 213.173C238.315 213.201 238.37 213.24 238.417 213.289C238.463 213.338 238.499 213.395 238.523 213.458C238.547 213.521 238.559 213.588 238.557 213.655C238.555 213.722 238.54 213.788 238.513 213.849C238.485 213.911 238.446 213.966 238.397 214.013C236.826 215.313 234.827 215.982 232.79 215.89V215.89Z" fill="#263238"/>
<path d="M258.818 191.688C261.687 192.014 267.398 193.37 269.159 196.096C270.919 198.821 276.5 207.923 274.975 216.464C274.49 219.598 272.869 222.444 270.421 224.459C267.973 226.475 264.869 227.518 261.7 227.392C257.032 226.922 254.163 224.784 256.484 218.055C258.805 211.326 260.565 201.859 258.857 197.347C257.319 193.227 255.584 191.349 258.818 191.688Z" fill="#37474F"/>
<path d="M272.771 202.876C271.581 204.608 269.97 206.009 268.089 206.945C267.192 207.294 266.343 207.754 265.56 208.314C265.172 208.6 264.876 208.993 264.709 209.445C264.542 209.897 264.512 210.388 264.621 210.857C265.012 211.991 266.368 212.396 267.516 212.722C268.663 213.048 270.006 213.726 270.019 214.925C270.019 215.786 269.328 216.516 269.263 217.377C269.279 217.686 269.358 217.99 269.496 218.267C269.634 218.545 269.827 218.791 270.065 218.991C270.302 219.19 270.578 219.338 270.875 219.427C271.173 219.515 271.485 219.54 271.793 219.502C272.956 219.294 273.996 218.651 274.701 217.703C274.805 217.312 274.896 216.92 274.974 216.503C275.822 211.73 274.453 206.788 272.771 202.876Z" fill="#99ADF9"/>
<path opacity="0.4" d="M272.771 202.876C271.581 204.608 269.97 206.009 268.089 206.945C267.192 207.294 266.343 207.754 265.56 208.314C265.172 208.6 264.876 208.993 264.709 209.445C264.542 209.897 264.512 210.388 264.621 210.857C265.012 211.991 266.368 212.396 267.516 212.722C268.663 213.048 270.006 213.726 270.019 214.925C270.019 215.786 269.328 216.516 269.263 217.377C269.279 217.686 269.358 217.99 269.496 218.267C269.634 218.545 269.827 218.791 270.065 218.991C270.302 219.19 270.578 219.338 270.875 219.427C271.173 219.515 271.485 219.54 271.793 219.502C272.956 219.294 273.996 218.651 274.701 217.703C274.805 217.312 274.896 216.92 274.974 216.503C275.822 211.73 274.453 206.788 272.771 202.876Z" fill="black"/>
<path d="M211.157 241.436C203.476 244.8 196.148 248.542 194.753 252.95C193.357 257.357 197.1 258.375 197.1 258.375C197.1 258.375 193.266 258.192 193.266 254.684C193.266 251.176 196.448 245.739 211.157 241.436Z" fill="#37474F"/>
<path d="M216.777 245.152C217.638 245.035 219.216 244.448 219.385 243.405C219.476 242.687 218.85 242.544 218.251 242.557C217.416 242.583 216.612 242.876 215.956 243.392C214.925 244.265 215.538 245.322 216.777 245.152Z" fill="#37474F"/>
<path d="M218.146 247.76C219.02 247.76 220.676 247.512 220.989 246.456C221.198 245.765 220.624 245.517 220.024 245.413C219.202 245.282 218.359 245.424 217.625 245.817C216.464 246.534 216.908 247.682 218.146 247.76Z" fill="#37474F"/>
<path d="M212.878 243.848C213.687 243.848 215.186 243.418 215.395 242.479C215.551 241.827 214.991 241.631 214.443 241.592C213.671 241.532 212.901 241.729 212.252 242.153C211.248 242.844 211.731 243.848 212.878 243.848Z" fill="#37474F"/>
<path d="M213.621 245.661C212.708 244.8 211.378 244.031 207.362 245.178C203.346 246.326 201.95 248.177 202.915 249.025C204.337 250.251 206.671 248.334 206.136 251.19C205.836 252.807 207.975 254.006 211.613 251.19C215.251 248.373 214.625 246.599 213.621 245.661Z" fill="#37474F"/>
<path d="M206.032 238.136C206.893 238.032 208.471 237.445 208.64 236.389C208.731 235.685 208.106 235.542 207.506 235.542C206.671 235.568 205.867 235.86 205.211 236.376C204.22 237.25 204.832 238.293 206.032 238.136Z" fill="#37474F"/>
<path d="M207.44 240.718C208.314 240.718 209.957 240.471 210.283 239.414C210.492 238.736 209.918 238.476 209.318 238.384C208.491 238.258 207.646 238.399 206.906 238.789C205.771 239.506 206.202 240.653 207.44 240.718Z" fill="#37474F"/>
<path d="M202.12 236.806C202.929 236.806 204.428 236.389 204.637 235.502C204.793 234.85 204.233 234.668 203.685 234.616C202.913 234.561 202.145 234.758 201.494 235.176C200.555 235.815 201.025 236.832 202.12 236.806Z" fill="#37474F"/>
<path d="M202.916 238.632C202.003 237.784 200.673 237.002 196.656 238.15C192.64 239.297 191.245 241.162 192.21 242.062C193.631 243.287 195.965 241.37 195.431 244.226C195.131 245.856 197.269 247.043 200.907 244.226C204.546 241.41 203.907 239.571 202.916 238.632Z" fill="#37474F"/>
<path d="M186.133 274.218C186.011 274.431 185.831 274.606 185.614 274.721C185.397 274.836 185.152 274.888 184.907 274.87C176.392 274.205 164.982 267.046 160.392 257.136C155.685 246.912 159.479 234.968 161.161 234.811C162.844 234.655 159.453 241.514 161.383 250.133C163.157 258.062 170.511 267.907 185.142 270.319C185.378 270.354 185.6 270.452 185.784 270.604C185.968 270.756 186.107 270.955 186.185 271.18C186.565 272.161 186.546 273.251 186.133 274.218Z" fill="#37474F"/>
<path opacity="0.1" d="M261.035 253.641C259.731 253.393 259.014 254.032 257.631 255.088C256.249 256.145 254.58 257.423 253.393 258.401C249.253 261.848 244.212 264.038 238.867 264.712C236.552 265.081 234.203 265.19 231.864 265.038C231.345 265.04 230.832 264.924 230.364 264.698C229.896 264.472 229.486 264.142 229.165 263.734C228.966 263.253 228.873 262.735 228.893 262.215C228.913 261.695 229.046 261.185 229.282 260.722C230.041 258.8 230.643 256.82 231.082 254.802C231.369 253.067 231.538 249.442 229.947 248.203C229.62 247.998 229.237 247.9 228.851 247.923C228.465 247.947 228.096 248.09 227.796 248.334C227.032 249.047 226.365 249.858 225.814 250.746C223.907 253.156 222.164 255.692 220.598 258.335C219.882 256.442 218.637 254.795 217.012 253.589C221.797 250.068 221.498 247.93 221.498 247.93C218.89 251.737 212.813 253.511 212.813 253.511C214.471 254.321 215.879 255.565 216.889 257.109C217.899 258.654 218.473 260.443 218.551 262.287C217.749 264.086 216.738 265.784 215.538 267.346C213.203 270.025 210.169 272.002 206.775 273.058C204.389 273.866 192.783 274.974 182.299 275.848C184.268 279.043 187.607 282.368 192.94 285.485C217.012 299.737 248.49 284.507 258.323 261.687C259.46 259.067 260.398 256.364 261.126 253.602L261.035 253.641Z" fill="black"/>
<path d="M171.137 308.161C177.996 307.118 184.816 305.736 191.571 304.119C207.806 300.207 224.445 295.082 239.297 287.363C243.944 284.972 248.366 282.166 252.507 278.978C254.56 277.558 256.374 275.819 257.879 273.827C259.359 271.696 260.634 269.43 261.687 267.059C263.035 264.039 263.63 260.737 263.421 257.436C263.33 256.432 262.952 255.232 261.961 255.049C260.657 254.815 259.848 256.536 259.105 257.331C258.087 258.473 256.999 259.549 255.845 260.552C251.696 263.986 246.66 266.174 241.318 266.864C239.004 267.232 236.655 267.342 234.316 267.19C233.797 267.191 233.284 267.074 232.816 266.848C232.349 266.622 231.939 266.293 231.617 265.886C231.417 265.405 231.325 264.887 231.345 264.367C231.365 263.847 231.498 263.337 231.734 262.873C232.495 260.953 233.096 258.972 233.534 256.953C233.82 255.232 233.99 251.594 232.399 250.368C232.072 250.162 231.688 250.065 231.302 250.088C230.917 250.111 230.548 250.255 230.248 250.498C229.477 251.205 228.809 252.018 228.265 252.911C226.16 255.509 224.263 258.269 222.593 261.165C221.067 263.969 219.985 267.033 217.938 269.511C215.605 272.19 212.57 274.164 209.175 275.209C205.263 276.513 176.118 278.704 168.438 279.265L149.96 239.936C149.96 239.936 140.193 209.527 124.063 206.593C115.639 211.365 113.174 215.512 111.936 224.849C110.697 234.185 114.309 242.101 118.456 254.71C122.602 267.32 142.241 297.495 147.783 303.506C153.325 309.518 156.259 309.518 165.647 308.892C167.486 308.696 169.312 308.435 171.137 308.161Z" fill="#FFA8A7"/>
<path d="M413.172 412.768L305.892 350.828L198.612 412.768L305.892 474.708L413.172 412.768Z" fill="#99ADF9"/>
<path opacity="0.4" d="M413.172 412.768L305.892 350.828L198.612 412.768L305.892 474.708L413.172 412.768Z" fill="white"/>
<path opacity="0.1" d="M413.172 412.768L305.892 350.828L198.612 412.768L305.892 474.708L413.172 412.768Z" fill="black"/>
<path opacity="0.1" d="M305.892 440.922V350.828L198.612 412.768V502.862L305.892 440.922Z" fill="black"/>
<path opacity="0.2" d="M305.892 440.922L198.612 502.862L305.892 564.802L413.172 502.862L305.892 440.922Z" fill="black"/>
<path d="M360.452 235.802C355.588 234.303 352.98 235.163 348.716 238.775C344.452 242.388 343.343 243.3 342.952 247.76C342.561 252.22 343.878 261.687 348.703 260.2C353.527 258.714 360.452 235.802 360.452 235.802Z" fill="#37474F"/>
<path d="M303.832 374.691C302.932 384.837 310.443 407.383 309.713 413.003C308.983 418.623 304.771 428.286 301.798 432.967C299.19 437.114 298.446 439.031 301.798 447.481C305.149 455.931 311.512 468.345 312.947 470.874C314.381 473.404 318.893 471.931 323.379 470.17C327.865 468.41 333.811 464.759 330.212 460.508C328.543 458.526 318.776 461.812 318.776 461.812C318.776 461.812 313.912 447.468 314.733 442.63C315.555 437.792 328.191 427.203 334.815 417.163C341.439 407.122 332.546 377.73 332.546 377.73L303.832 374.691Z" fill="#99ADF9"/>
<path opacity="0.55" d="M303.832 374.691C302.932 384.837 310.443 407.383 309.713 413.003C308.983 418.623 304.771 428.286 301.798 432.967C299.19 437.114 298.446 439.031 301.798 447.481C305.149 455.931 311.512 468.345 312.947 470.874C314.381 473.404 318.893 471.931 323.379 470.17C327.865 468.41 333.811 464.759 330.212 460.508C328.543 458.526 318.776 461.812 318.776 461.812C318.776 461.812 313.912 447.468 314.733 442.63C315.555 437.792 328.191 427.203 334.815 417.163C341.439 407.122 332.546 377.73 332.546 377.73L303.832 374.691Z" fill="black"/>
<path d="M381.798 302.606C381.576 301.68 381.328 300.794 381.068 299.998C382.632 305.762 376.804 321.684 365.954 333.902C355.105 346.121 359.838 355.549 362.681 368.628C360.973 359.643 361.508 356.722 364.076 349.355C369.24 334.593 386.075 333.902 381.798 302.606Z" fill="#99ADF9"/>
<path d="M419.536 279.643C412.429 275.548 407.8 278.091 401.932 284.207C397.676 288.915 392.803 293.025 387.444 296.425C386.636 291.014 385.54 285.863 385.371 283.307C385.032 278.404 385.253 273.24 388.513 269.446C391.773 265.651 393.156 263.421 397.068 260.526C398.511 259.497 399.851 258.331 401.071 257.045C402.231 255.741 404.435 252.676 403.379 250.877C401.348 252.484 398.807 253.308 396.22 253.198C395.166 253.081 394.162 252.685 393.312 252.05C393.242 252.013 393.183 251.959 393.14 251.893C393.096 251.827 393.07 251.751 393.064 251.672C393.064 251.476 393.286 251.372 393.469 251.307C394.119 251.119 394.781 250.975 395.451 250.877C397.478 250.554 399.4 249.754 401.058 248.542C402.223 247.626 403.079 246.375 403.509 244.956C403.835 243.809 403.575 243.652 403.509 242.505C403.433 241.588 403.222 240.687 402.883 239.832C401.918 237.524 399.91 236.911 397.759 235.92C392.869 233.533 391.174 236.18 384.184 236.911C378.968 237.458 366.854 231.499 357.491 237.406C347.294 243.835 346.629 254.358 344.686 264.712C344.256 267.009 343.641 269.268 342.847 271.467C339.809 278.261 336.419 279.617 332.089 293.635C325.687 314.186 327.212 325.4 316.011 340.97C305.931 355.014 303.245 365.746 303.219 373.4C303.219 386.44 305.514 389.935 316.128 399.089C323.796 405.687 327.447 406.809 334.932 417.28C337.357 420.657 337.54 434.01 335.741 440.022C333.941 446.033 332.337 449.032 334.137 453.753C335.936 458.473 344.425 478.164 347.516 482.963C350.606 487.761 354.036 486.535 364.311 483.445C374.404 480.433 369.605 474.082 365.993 474.487C362.918 474.927 359.871 475.541 356.865 476.325C356.865 476.325 349.485 458.969 349.498 454.705C349.511 450.441 358.274 432.706 365.224 423.344C372.174 413.981 369.501 399.089 365.224 380.155C360.947 361.221 360.738 359.291 364.168 349.485C367.428 340.175 375.33 336.445 379.646 327.135C385.006 324.787 390.078 322.505 392.073 319.728C396.142 314.095 404.566 300.037 408.073 295.291C412.807 288.875 416.08 285.159 421.113 286.958C425.717 288.614 426.329 287.48 426.329 287.48C426.851 284.885 423.682 282.042 419.536 279.643Z" fill="#99ADF9"/>
<path opacity="0.4" d="M419.536 279.643C412.429 275.548 407.8 278.091 401.932 284.207C397.676 288.915 392.803 293.025 387.444 296.425C386.636 291.014 385.54 285.863 385.371 283.307C385.032 278.404 385.253 273.24 388.513 269.446C391.773 265.651 393.156 263.421 397.068 260.526C398.511 259.497 399.851 258.331 401.071 257.045C402.231 255.741 404.435 252.676 403.379 250.877C401.348 252.484 398.807 253.308 396.22 253.198C395.166 253.081 394.162 252.685 393.312 252.05C393.242 252.013 393.183 251.959 393.14 251.893C393.096 251.827 393.07 251.751 393.064 251.672C393.064 251.476 393.286 251.372 393.469 251.307C394.119 251.119 394.781 250.975 395.451 250.877C397.478 250.554 399.4 249.754 401.058 248.542C402.223 247.626 403.079 246.375 403.509 244.956C403.835 243.809 403.575 243.652 403.509 242.505C403.433 241.588 403.222 240.687 402.883 239.832C401.918 237.524 399.91 236.911 397.759 235.92C392.869 233.533 391.174 236.18 384.184 236.911C378.968 237.458 366.854 231.499 357.491 237.406C347.294 243.835 346.629 254.358 344.686 264.712C344.256 267.009 343.641 269.268 342.847 271.467C339.809 278.261 336.419 279.617 332.089 293.635C325.687 314.186 327.212 325.4 316.011 340.97C305.931 355.014 303.245 365.746 303.219 373.4C303.219 386.44 305.514 389.935 316.128 399.089C323.796 405.687 327.447 406.809 334.932 417.28C337.357 420.657 337.54 434.01 335.741 440.022C333.941 446.033 332.337 449.032 334.137 453.753C335.936 458.473 344.425 478.164 347.516 482.963C350.606 487.761 354.036 486.535 364.311 483.445C374.404 480.433 369.605 474.082 365.993 474.487C362.918 474.927 359.871 475.541 356.865 476.325C356.865 476.325 349.485 458.969 349.498 454.705C349.511 450.441 358.274 432.706 365.224 423.344C372.174 413.981 369.501 399.089 365.224 380.155C360.947 361.221 360.738 359.291 364.168 349.485C367.428 340.175 375.33 336.445 379.646 327.135C385.006 324.787 390.078 322.505 392.073 319.728C396.142 314.095 404.566 300.037 408.073 295.291C412.807 288.875 416.08 285.159 421.113 286.958C425.717 288.614 426.329 287.48 426.329 287.48C426.851 284.885 423.682 282.042 419.536 279.643Z" fill="black"/>
<path d="M364.077 349.355C361.469 356.722 360.973 359.643 362.681 368.628C359.904 355.992 355.379 346.864 364.963 335.128C368.119 331.959 374 329.482 379.555 327.056C375.239 336.328 367.337 340.057 364.077 349.355Z" fill="#FAFAFA"/>
<path d="M308.291 374.626C304.745 378.838 299.933 379.477 287.023 387.471C275.287 394.76 272.327 409.313 277.491 418.519C281.912 426.421 286.88 432.459 287.675 437.948C288.979 446.894 284.611 450.662 284.611 450.662C284.611 450.662 293.204 447.676 294.756 441.391C294.756 441.391 296.438 449.059 289.331 456.935C289.331 456.935 305.801 460.703 309.178 443.282C311.786 429.89 307.796 422.105 299.555 414.776C293.217 409.143 290.427 399.585 299.92 392.165C311.186 383.402 312.399 378.838 312.399 378.838C312.399 378.838 313.181 374.691 308.291 374.626Z" fill="#263238"/>
<path d="M401.945 247.76C404.008 247.792 405.987 248.586 407.5 249.99C408.543 251.007 411.881 257.136 409.912 259.248C407.943 261.361 402.936 259.926 401.958 255.336C401.958 255.336 394.473 256.236 391.982 253.263C389.491 250.29 393.025 248.986 396.363 248.555L401.945 247.76Z" fill="#F28F8F"/>
<path d="M403.379 250.877C403.379 250.877 400.471 253.354 401.11 255.271C401.631 255.271 401.957 255.271 401.957 255.271C402.204 256.524 402.822 257.673 403.731 258.57C404.688 259.374 405.912 259.788 407.16 259.731C409.768 259.509 408.464 257.397 407.734 254.958C407.004 252.52 404.748 250.368 403.379 250.877Z" fill="#874C4C"/>
<path d="M403.379 250.877C404.435 252.676 402.219 255.806 401.084 257.044C399.857 258.332 398.513 259.502 397.068 260.539C393.156 263.408 391.734 265.755 388.514 269.459C385.293 273.162 385.045 278.404 385.371 283.307C385.54 285.915 386.675 291.014 387.457 296.425C387.04 296.673 386.61 296.921 386.153 297.142C384.342 291.465 382.034 285.958 379.255 280.686C376.647 275.731 374.326 271.154 377.456 263.199C379.62 257.683 379.046 254.071 388.305 250.798C396.585 247.903 392.608 242.7 390.104 241.214C387.601 239.727 385.801 237.615 386.936 236.402C390.939 235.098 394.003 233.99 397.368 235.659C399.519 236.715 401.788 237.524 402.753 239.819C403.09 240.679 403.301 241.584 403.379 242.505C403.496 243.665 403.757 243.809 403.444 244.956C403 246.372 402.142 247.621 400.98 248.542C399.324 249.755 397.401 250.551 395.373 250.864C394.708 251.007 394.069 251.098 393.39 251.307C393.208 251.372 393.012 251.476 392.999 251.672C392.986 251.868 393.117 251.959 393.234 252.063C394.109 252.624 395.129 252.919 396.168 252.911C398.738 253.125 401.299 252.402 403.379 250.877V250.877Z" fill="#FAFAFA"/>
<path d="M396.494 237.432H396.428C396.167 237.14 395.879 236.874 395.568 236.637C395.109 236.455 394.633 236.32 394.146 236.233C393.794 236.115 393.351 235.763 393.442 235.32C393.442 235.072 393.703 234.955 393.925 234.837C394.625 234.355 395.421 234.031 396.259 233.885C397.279 233.849 398.292 234.069 399.206 234.524C401.814 235.698 402.975 236.415 403.535 237.302C404.096 238.189 403.17 241.214 403.17 241.214C403.165 240.755 403.039 240.305 402.805 239.91C402.127 238.345 400.014 238.384 398.606 238.241C397.84 238.177 397.107 237.897 396.494 237.432Z" fill="#263238"/>
<path opacity="0.1" d="M385.371 283.307C385.032 278.404 385.253 273.24 388.513 269.446C391.773 265.651 393.156 263.421 397.068 260.526C397.589 260.148 398.098 259.744 398.593 259.34C391.812 264.06 386.362 261.648 382.671 264.816C378.981 267.985 381.485 275.861 383.975 279.682C384.532 280.853 384.999 282.065 385.371 283.307Z" fill="black"/>
<path d="M368.719 251.072C370.27 248.908 377.221 243.822 380.324 242.583C383.428 241.344 388.983 248.608 388.97 254.554C388.957 260.5 384.836 272.001 380.259 271.688C375.682 271.375 371.053 254.358 368.914 256.366C366.776 258.375 365.889 254.997 368.719 251.072Z" fill="#37474F"/>
<path d="M305.892 564.802L413.172 502.862V412.768L305.892 474.708V564.802Z" fill="#99ADF9"/>
<path opacity="0.6" d="M305.892 564.802L413.172 502.862V412.768L305.892 474.708V564.802Z" fill="white"/>
<path opacity="0.1" d="M305.892 474.708L325.322 514.05L413.172 463.442V412.768L305.892 474.708Z" fill="black"/>
<path d="M305.892 564.802L198.612 502.862V412.768L305.892 474.708V564.802Z" fill="#99ADF9"/>
<path opacity="0.4" d="M305.892 564.802L198.612 502.862V412.768L305.892 474.708V564.802Z" fill="white"/>
<path opacity="0.1" d="M305.892 474.708L286.475 514.05L198.612 463.442V412.768L305.892 474.708Z" fill="black"/>
<path opacity="0.1" d="M205.927 483.002V493.512C206.027 495.318 206.551 497.076 207.457 498.641C208.364 500.207 209.626 501.537 211.143 502.522L234.876 516.228C237.758 517.884 240.092 516.54 240.092 513.228V502.705C239.992 500.901 239.467 499.146 238.561 497.582C237.654 496.019 236.392 494.691 234.876 493.707L211.143 480.002C208.261 478.346 205.927 479.689 205.927 483.002Z" fill="black"/>
<path d="M198.612 412.768L174.24 443.738L281.599 505.613L305.892 474.708L198.612 412.768Z" fill="#99ADF9"/>
<path opacity="0.6" d="M198.612 412.768L174.24 443.738L281.599 505.613L305.892 474.708L198.612 412.768Z" fill="white"/>
<path d="M413.172 412.768L437.557 443.738L330.199 505.613L305.892 474.708L413.172 412.768Z" fill="#99ADF9"/>
<path opacity="0.4" d="M413.172 412.768L437.557 443.738L330.199 505.613L305.892 474.708L413.172 412.768Z" fill="white"/>
<path d="M324.122 530.298C324.668 529.554 325.339 528.91 326.104 528.394C326.546 528.081 327.047 527.864 327.577 527.755C327.752 527.709 327.938 527.73 328.097 527.815C328.257 527.899 328.378 528.041 328.438 528.211C328.673 528.837 328.921 529.515 329.194 530.415C329.468 531.315 329.729 532.123 330.003 533.023C330.277 533.923 330.551 534.823 330.811 535.709C331.072 536.596 331.294 537.391 331.489 538.07C331.347 538.39 331.153 538.685 330.916 538.943C330.639 539.248 330.323 539.516 329.977 539.739C329.773 539.883 329.549 539.997 329.312 540.078C329.164 540.127 329.003 540.127 328.855 540.078C328.752 540.031 328.666 539.953 328.608 539.856C328.517 539.69 328.442 539.515 328.386 539.334L328.034 538.03L325.035 539.973C324.956 540.456 324.891 540.964 324.826 541.473C324.761 541.982 324.683 542.503 324.604 542.986C324.454 543.16 324.292 543.326 324.122 543.481C323.936 543.665 323.731 543.826 323.509 543.964C323.331 544.118 323.124 544.235 322.9 544.309C322.676 544.383 322.44 544.412 322.205 544.394C321.918 544.316 321.775 544.055 321.762 543.612C321.736 543.395 321.736 543.176 321.762 542.96C321.762 542.725 321.84 542.464 321.879 542.151C321.918 541.838 322.035 541.16 322.153 540.495C322.27 539.83 322.388 539.113 322.531 538.33L322.974 535.931C323.144 535.109 323.287 534.327 323.431 533.597C323.574 532.867 323.705 532.202 323.822 531.628C323.939 531.054 324.057 530.598 324.122 530.298ZM326.221 531.797C326.091 532.501 325.947 533.284 325.778 534.158C325.608 535.031 325.478 535.879 325.348 536.766L327.395 535.462C327.212 534.783 327.03 534.158 326.834 533.479C326.639 532.801 326.469 532.28 326.326 531.771L326.221 531.797Z" fill="#455A64"/>
<path d="M336.692 535.553L336.04 535.944C335.797 536.09 335.544 536.221 335.284 536.335C335.029 536.466 334.768 536.583 334.502 536.687C334.266 536.778 334.021 536.844 333.771 536.883C333.159 536.974 332.833 536.635 332.806 535.892L332.402 525.812C332.382 525.528 332.441 525.244 332.572 524.99C332.705 524.723 332.871 524.473 333.067 524.247C333.528 523.77 334.03 523.333 334.567 522.943C335.022 522.578 335.496 522.239 335.988 521.926C336.71 521.431 337.507 521.057 338.348 520.818C338.958 520.63 339.615 520.667 340.2 520.922C340.796 521.205 341.262 521.704 341.504 522.317C341.856 523.206 342.038 524.152 342.039 525.108C342.082 526.206 341.99 527.305 341.765 528.381C341.537 529.382 341.182 530.351 340.709 531.263C340.247 532.15 339.673 532.974 339 533.714C338.309 534.419 337.534 535.036 336.692 535.553V535.553ZM335.636 532.945L336.093 532.723C336.264 532.638 336.429 532.542 336.588 532.436C337.373 531.927 338.001 531.209 338.401 530.363C338.633 529.88 338.795 529.366 338.883 528.837C338.997 528.227 339.036 527.605 339 526.986C339 525.682 338.688 524.86 338.192 524.508C337.697 524.156 337.071 524.221 336.301 524.717L335.832 525.043C335.675 525.16 335.506 525.29 335.349 525.434L335.636 532.945Z" fill="#455A64"/>
<path d="M351.806 520.048C351.846 520.923 351.771 521.8 351.584 522.656C351.407 523.459 351.136 524.238 350.776 524.977C350.429 525.688 349.991 526.35 349.472 526.946C348.954 527.526 348.362 528.034 347.711 528.459C347.174 528.831 346.566 529.089 345.925 529.215C345.442 529.303 344.944 529.22 344.516 528.981C344.079 528.698 343.746 528.282 343.565 527.794C343.302 527.116 343.165 526.396 343.16 525.668C343.123 524.823 343.197 523.977 343.382 523.152C343.559 522.343 343.835 521.559 344.203 520.818C344.551 520.099 344.989 519.429 345.507 518.822C346.018 518.232 346.611 517.718 347.268 517.297C347.798 516.914 348.409 516.66 349.054 516.554C349.537 516.466 350.035 516.549 350.463 516.788C350.903 517.067 351.238 517.485 351.415 517.975C351.669 518.637 351.802 519.339 351.806 520.048V520.048ZM346.016 523.791C345.967 524.418 346.133 525.043 346.485 525.564C346.759 525.864 347.124 525.864 347.594 525.564C348.089 525.225 348.457 524.729 348.637 524.156C348.876 523.433 348.973 522.672 348.924 521.913C348.968 521.292 348.807 520.674 348.468 520.153C348.194 519.853 347.829 519.853 347.359 520.153C346.871 520.494 346.505 520.983 346.316 521.548C346.067 522.268 345.965 523.031 346.016 523.791Z" fill="#455A64"/>
<path d="M356.5 522.304C356.383 522.435 356.187 522.591 355.94 522.813C355.692 523.034 355.418 523.204 355.17 523.373C354.954 523.508 354.727 523.626 354.492 523.726C354.332 523.78 354.157 523.78 353.997 523.726C353.921 523.693 353.852 523.645 353.796 523.584C353.74 523.524 353.697 523.452 353.671 523.373C353.586 523.099 353.542 522.813 353.54 522.526L353.136 512.368C353.116 512.079 353.175 511.791 353.306 511.533C353.439 511.269 353.605 511.024 353.801 510.803C354.204 510.365 354.64 509.96 355.105 509.59C355.562 509.21 356.041 508.857 356.54 508.534C358.065 507.556 359.252 507.23 360.086 507.556C360.921 507.882 361.39 508.769 361.39 510.229C361.426 510.925 361.369 511.622 361.221 512.303C361.062 512.984 360.826 513.644 360.517 514.272C360.157 514.914 359.719 515.51 359.213 516.045C358.684 516.611 358.089 517.11 357.439 517.532L356.266 518.288L356.5 522.304ZM357.087 514.819C357.53 514.549 357.895 514.167 358.143 513.711C358.384 513.24 358.492 512.713 358.456 512.185C358.456 511.637 358.313 511.298 358.026 511.168C357.752 511.051 357.374 511.168 356.866 511.468L356.435 511.755L356.083 512.042L356.214 515.393L357.087 514.819Z" fill="#455A64"/>
<path d="M365.68 512.772C365.68 513.137 365.798 513.346 365.993 513.385C366.274 513.4 366.549 513.306 366.763 513.124C366.944 513.008 367.118 512.882 367.284 512.746C367.454 512.589 367.61 512.446 367.741 512.303C367.853 512.407 367.945 512.531 368.015 512.668C368.109 512.862 368.154 513.077 368.145 513.294C368.162 513.869 368.017 514.439 367.728 514.937C367.32 515.598 366.756 516.149 366.085 516.541C365.12 517.166 364.35 517.362 363.816 517.127C363.281 516.893 362.968 516.123 362.916 514.819L362.551 505.587C362.712 505.417 362.881 505.256 363.059 505.104C363.286 504.911 363.526 504.732 363.777 504.57C364.101 504.306 364.506 504.163 364.924 504.166C365.211 504.166 365.367 504.596 365.393 505.313V506.695L367.558 505.3C367.647 505.449 367.722 505.606 367.78 505.769C367.852 506.006 367.891 506.252 367.897 506.5C367.941 506.945 367.869 507.394 367.689 507.804C367.539 508.122 367.304 508.393 367.01 508.586L365.498 509.564L365.68 512.772Z" fill="#455A64"/>
<path d="M379.972 503.931C379.666 504.498 379.216 504.975 378.668 505.313C378.373 505.529 378.035 505.68 377.677 505.756C377.561 505.78 377.441 505.758 377.341 505.695C377.242 505.632 377.17 505.532 377.142 505.417C376.79 504.348 376.49 503.488 376.256 502.809C376.021 502.131 375.852 501.571 375.721 501.049H375.63C375.63 501.923 375.63 502.705 375.63 503.422C375.63 504.14 375.63 504.818 375.63 505.483C375.63 506.148 375.63 506.787 375.63 507.504C375.63 508.221 375.63 508.964 375.63 509.799C375.459 509.997 375.272 510.181 375.069 510.347C374.852 510.537 374.621 510.711 374.378 510.868C374.049 511.127 373.648 511.277 373.23 511.298C372.957 511.298 372.8 510.999 372.787 510.464V499.145C372.927 498.794 373.116 498.465 373.348 498.167C373.68 497.71 374.102 497.324 374.587 497.033C374.99 496.722 375.475 496.536 375.982 496.498C376.163 496.521 376.334 496.598 376.471 496.719C376.608 496.84 376.706 496.999 376.751 497.176C376.869 497.463 376.986 497.789 377.129 498.154C377.273 498.519 377.39 498.91 377.521 499.315C377.651 499.719 377.794 500.11 377.925 500.514C378.055 500.919 378.16 501.271 378.264 501.584H378.355C378.564 500.201 378.785 498.858 379.007 497.554C379.229 496.25 379.437 495.155 379.62 494.242C379.813 493.994 380.022 493.759 380.246 493.538C380.518 493.288 380.81 493.062 381.12 492.86C381.504 492.577 381.952 492.393 382.424 492.325C382.499 492.316 382.576 492.322 382.649 492.343C382.722 492.364 382.79 492.399 382.849 492.446C382.909 492.493 382.958 492.552 382.995 492.619C383.032 492.685 383.055 492.758 383.063 492.834C383.063 493.095 383.18 493.499 383.258 494.138C383.336 494.777 383.402 495.338 383.493 496.055C383.584 496.772 383.662 497.515 383.754 498.324C383.845 499.132 383.923 499.888 384.002 500.632C384.08 501.375 384.145 502.04 384.21 502.666C384.275 503.292 384.314 503.761 384.328 504.1C384.161 504.35 383.968 504.581 383.754 504.792C383.515 505.018 383.253 505.22 382.971 505.391C382.661 505.626 382.29 505.766 381.902 505.796C381.602 505.796 381.446 505.535 381.394 505C381.263 503.474 381.172 502.092 381.107 500.84C381.041 499.589 380.976 498.571 380.911 497.737H380.82C380.742 498.376 380.598 499.184 380.429 500.175C380.259 501.166 380.22 502.418 379.972 503.931Z" fill="#455A64"/>
<path d="M390.352 500.88C389.8 501.265 389.181 501.543 388.527 501.701C388.026 501.827 387.498 501.781 387.027 501.571C386.551 501.318 386.178 500.908 385.971 500.41C385.673 499.681 385.518 498.902 385.514 498.115C385.479 497.216 385.567 496.317 385.775 495.442C385.977 494.646 386.27 493.875 386.649 493.147C387.001 492.483 387.44 491.869 387.953 491.321C388.398 490.823 388.907 490.384 389.466 490.017C389.948 489.684 390.494 489.453 391.07 489.339C391.509 489.25 391.964 489.3 392.374 489.483C392.76 489.685 393.067 490.011 393.247 490.408C393.48 490.925 393.605 491.485 393.612 492.051C393.629 492.502 393.535 492.95 393.338 493.355C393.129 493.764 392.836 494.124 392.478 494.412L388.422 497.854C388.462 498.029 388.563 498.184 388.706 498.291C388.849 498.399 389.026 498.452 389.205 498.441C389.676 498.413 390.128 498.25 390.509 497.972C390.981 497.669 391.419 497.315 391.813 496.915C392.168 496.553 392.491 496.16 392.778 495.742C392.97 495.786 393.138 495.903 393.247 496.068C393.39 496.27 393.467 496.511 393.469 496.759C393.479 497.448 393.253 498.119 392.83 498.663C392.489 499.14 392.095 499.577 391.656 499.967C391.245 500.302 390.809 500.608 390.352 500.88ZM389.557 492.703C389.297 492.866 389.067 493.074 388.879 493.316C388.691 493.541 388.538 493.791 388.422 494.06C388.312 494.312 388.225 494.574 388.162 494.842C388.118 495.092 388.091 495.345 388.083 495.598L390.9 493.16C390.877 493.034 390.83 492.914 390.761 492.806C390.691 492.699 390.601 492.606 390.496 492.534C390.274 492.377 389.961 492.443 389.557 492.703V492.703Z" fill="#455A64"/>
<path d="M397.811 486.966C397.794 486.349 397.924 485.737 398.189 485.179C398.431 484.622 398.83 484.146 399.337 483.81C399.832 483.484 400.236 483.432 400.536 483.654C400.719 483.814 400.86 484.017 400.947 484.244C401.033 484.471 401.062 484.716 401.032 484.958C401.053 485.575 400.923 486.188 400.654 486.744C400.407 487.282 400.008 487.735 399.506 488.048C399.011 488.374 398.606 488.426 398.307 488.205C398.134 488.05 397.999 487.858 397.913 487.643C397.827 487.428 397.792 487.197 397.811 486.966V486.966ZM398.085 493.747C398.066 493.127 398.191 492.511 398.45 491.947C398.705 491.411 399.108 490.959 399.611 490.643C400.106 490.317 400.51 490.265 400.81 490.487C400.98 490.64 401.112 490.83 401.196 491.043C401.28 491.255 401.313 491.485 401.293 491.712C401.32 492.333 401.194 492.951 400.928 493.512C400.677 494.047 400.279 494.499 399.78 494.816C399.271 495.142 398.88 495.194 398.58 494.972C398.409 494.82 398.275 494.63 398.189 494.418C398.103 494.205 398.067 493.975 398.085 493.747V493.747Z" fill="#455A64"/>
<path d="M406.691 485.088C406.758 486.481 406.71 487.876 406.548 489.261C406.411 490.403 406.185 491.532 405.87 492.638C405.692 493.257 405.452 493.855 405.152 494.425C404.902 494.948 404.52 495.397 404.044 495.729C403.93 495.816 403.799 495.877 403.66 495.909C403.52 495.94 403.375 495.941 403.235 495.911C403.017 495.861 402.821 495.742 402.675 495.572C402.922 494.881 403.131 494.19 403.314 493.499C403.496 492.808 403.64 492.117 403.757 491.413C403.877 490.687 403.955 489.956 403.992 489.222C404.031 488.431 404.031 487.639 403.992 486.849C403.963 486.098 403.893 485.349 403.783 484.606C403.704 484 403.573 483.402 403.392 482.819C403.249 482.325 403.052 481.849 402.805 481.398C402.595 480.985 402.341 480.596 402.049 480.237C402.173 479.876 402.34 479.53 402.544 479.207C402.74 478.874 403.007 478.589 403.327 478.373C403.482 478.234 403.674 478.143 403.879 478.108C404.084 478.073 404.295 478.097 404.487 478.177C404.825 478.368 405.107 478.641 405.309 478.972C405.726 479.709 406.029 480.505 406.209 481.333C406.495 482.565 406.657 483.823 406.691 485.088Z" fill="#455A64"/>
<path d="M106.563 148.513C105.921 146.83 104.688 145.44 103.094 144.601V144.601C102.168 144.118 101.151 143.836 100.108 143.773C99.0655 143.71 98.0214 143.868 97.0438 144.236C93.51 145.54 92.0365 150.521 92.8841 154.094C91.1498 150.847 86.7814 148.069 83.2606 149.399C82.2809 149.765 81.3897 150.334 80.6458 151.069C79.9018 151.804 79.322 152.688 78.9443 153.663V153.663C78.3083 155.344 78.3083 157.199 78.9443 158.879C81.0046 164.369 87.2247 165.491 92.845 167.499L98.7521 169.585L101.712 164.135C104.672 158.945 108.623 154.002 106.563 148.513Z" fill="#99ADF9"/>
<path d="M411.164 189.237C410.518 187.557 409.286 186.167 407.696 185.325V185.325C406.771 184.837 405.754 184.551 404.711 184.486C403.668 184.42 402.623 184.577 401.645 184.946C398.111 186.25 396.638 191.232 397.485 194.805C395.764 191.558 391.383 188.78 387.862 190.11C386.883 190.463 385.989 191.018 385.238 191.739C384.488 192.46 383.898 193.332 383.507 194.296V194.296C382.88 195.978 382.88 197.83 383.507 199.512C385.567 204.989 391.8 206.123 397.407 208.118L403.314 210.205L406.405 204.754C409.274 199.669 413.225 194.726 411.164 189.237Z" fill="#99ADF9"/>
<path d="M266.251 156.05C267.026 154.422 267.18 152.567 266.681 150.834V150.834C266.389 149.839 265.89 148.918 265.215 148.131C264.541 147.345 263.707 146.71 262.769 146.27C259.405 144.666 254.867 147.013 252.898 150.064C254.032 146.609 253.015 141.601 249.651 139.997C248.72 139.55 247.705 139.306 246.674 139.282C245.642 139.257 244.616 139.452 243.665 139.854V139.854C242.028 140.556 240.702 141.831 239.936 143.44C237.432 148.656 240.901 153.872 243.313 159.231L245.921 164.865L251.907 163.313C257.527 161.839 263.747 161.279 266.251 156.05Z" fill="#99ADF9"/>
<path d="M574.543 159.675C575.332 158.051 575.485 156.19 574.973 154.459V154.459C574.682 153.464 574.183 152.543 573.508 151.756C572.834 150.969 572 150.334 571.061 149.895C567.71 148.291 563.172 150.638 561.19 153.689C562.324 150.247 561.307 145.227 557.943 143.623C557.011 143.179 555.997 142.936 554.965 142.912C553.934 142.887 552.909 143.08 551.957 143.479V143.479C550.306 144.175 548.966 145.451 548.189 147.065C545.698 152.281 549.167 157.497 551.579 162.857L554.187 168.49L560.186 166.938C565.832 165.465 572.052 164.904 574.543 159.675Z" fill="#99ADF9"/>
</svg>
