<svg width="500" height="500" viewBox="0 0 500 500" fill="none" xmlns="http://www.w3.org/2000/svg">
<rect width="500" height="500" fill="#D9D9D9"/>
<path d="M334.276 223.319C332.292 218.605 328.997 215.205 324.744 213.493L324.687 213.472C322.751 212.714 320.689 212.326 318.61 212.328H318.382C308.645 212.475 298.706 220.749 293.652 232.919C289.945 241.819 289.52 251.391 292.515 258.525C294.495 263.243 297.798 266.642 302.069 268.354L302.115 268.372C304.051 269.13 306.112 269.518 308.191 269.516C318.021 269.516 328.064 261.241 333.211 248.91C336.871 240.021 337.275 230.457 334.276 223.319ZM295.374 275.81C289.759 272.436 284.452 269.244 280.985 263.511C271.42 247.641 265.644 238.063 250.5 238.063C235.356 238.063 229.566 247.641 219.98 263.511C216.506 269.251 211.187 272.447 205.554 275.835C199.096 279.716 192.423 283.727 189.542 291.619C188.422 294.464 187.858 297.497 187.88 300.554C187.88 313.403 197.888 323.858 210.183 323.858C216.527 323.858 223.279 321.66 230.424 319.333C237.293 317.096 244.395 314.783 250.536 314.783C256.676 314.783 263.76 317.096 270.605 319.333C277.736 321.646 284.455 323.844 290.817 323.844C303.095 323.844 313.085 313.389 313.085 300.54C313.095 297.48 312.518 294.447 311.387 291.604C308.506 283.705 301.829 279.691 295.374 275.81ZM212.613 225.499C216.867 230.835 222.264 233.773 227.811 233.773C228.568 233.773 229.324 233.717 230.073 233.606C241.643 231.904 248.852 217.786 246.486 201.438C245.496 194.564 242.851 188.163 239.063 183.416C234.816 178.091 229.412 175.156 223.869 175.156C223.111 175.156 222.355 175.212 221.606 175.324C210.036 177.026 202.827 191.144 205.193 207.492C206.18 214.355 208.825 220.749 212.613 225.499ZM270.93 233.606C271.679 233.717 272.435 233.773 273.193 233.773C278.744 233.773 284.137 230.835 288.39 225.499C292.175 220.749 294.806 214.355 295.807 207.485C298.173 191.144 290.964 177.026 279.394 175.317C278.645 175.205 277.889 175.149 277.132 175.149C271.588 175.156 266.184 178.091 261.938 183.416C258.149 188.163 255.504 194.564 254.517 201.445C252.151 217.786 259.361 231.904 270.93 233.606V233.606ZM198.885 268.372L198.935 268.354C203.199 266.642 206.498 263.246 208.474 258.532C211.47 251.384 211.048 241.823 207.348 232.923C202.227 220.606 192.187 212.328 182.368 212.328C180.289 212.325 178.228 212.713 176.292 213.472L176.242 213.49C171.989 215.188 168.69 218.597 166.713 223.312C163.718 230.46 164.14 240.021 167.839 248.921C172.961 261.238 183.001 269.516 192.819 269.516C194.895 269.517 196.952 269.129 198.885 268.372V268.372Z" fill="#AEAEAE"/>
</svg>
