<svg width="500" height="500" viewBox="0 0 500 500" fill="none" xmlns="http://www.w3.org/2000/svg">
<rect width="500" height="500" fill="#F9E5CE"/>
<path d="M211.212 217.812C211.193 218.274 211.268 218.736 211.433 219.168C211.598 219.6 211.85 219.994 212.173 220.325C212.497 220.656 212.884 220.917 213.312 221.093C213.74 221.269 214.199 221.356 214.662 221.347H226.469C228.445 221.347 230.019 219.73 230.277 217.769C231.565 208.38 238.005 201.539 249.484 201.539C259.302 201.539 268.291 206.448 268.291 218.256C268.291 227.344 262.938 231.524 254.479 237.878C244.847 244.877 237.218 253.05 237.762 266.317L237.805 269.423C237.82 270.362 238.204 271.257 238.873 271.916C239.542 272.575 240.444 272.944 241.383 272.944H252.99C253.939 272.944 254.85 272.567 255.521 271.896C256.192 271.225 256.569 270.315 256.569 269.366V267.863C256.569 257.587 260.476 254.595 271.024 246.595C279.741 239.968 288.829 232.611 288.829 217.168C288.829 195.542 270.566 185.094 250.572 185.094C232.438 185.094 212.572 193.538 211.212 217.812V217.812ZM233.497 300.295C233.497 307.924 239.58 313.563 247.952 313.563C256.669 313.563 262.666 307.924 262.666 300.295C262.666 292.395 256.654 286.841 247.938 286.841C239.58 286.841 233.497 292.395 233.497 300.295Z" fill="#FEC272"/>
</svg>
