<svg width="590" height="590" viewBox="0 0 590 590" fill="none" xmlns="http://www.w3.org/2000/svg">
<path d="M412.607 368.75C432.47 377.501 400.119 378.583 356.655 382.025C313.192 385.565 288.609 382.418 256.257 381.926C224.004 381.435 176.214 383.696 172.969 374.06C169.625 364.423 196.667 357.933 199.125 352.525C201.485 347.215 141.699 350.165 143.174 343.97C143.665 341.905 145.534 340.036 148.582 338.365C174.935 323.713 289.1 322.336 344.659 321.943C406.609 321.451 470.82 320.566 496.387 335.218C499.829 337.185 501.304 338.856 501.205 340.331C500.812 349.968 435.912 350.46 416.54 353.508C393.924 356.95 392.744 359.998 412.607 368.75Z" fill="#C7D4FF"/>
<path d="M383.5 352.623C398.152 358.326 374.257 358.916 342.2 361.178C310.045 363.341 291.854 361.375 268.057 360.981C244.162 360.588 208.959 362.063 206.5 355.77C204.042 349.476 224.004 345.346 225.774 341.905C227.544 338.463 183.294 340.331 184.375 336.201C184.769 334.825 186.145 333.645 188.309 332.563C207.779 323.123 292.149 322.435 333.154 322.14C378.879 321.845 436.502 318.796 445.254 328.138C449.482 332.661 400.61 340.823 386.254 342.691C369.635 344.953 368.75 346.92 383.5 352.623Z" fill="#99ADF9"/>
<path d="M412.607 368.75C432.47 377.502 400.119 378.583 356.655 382.025C313.192 385.565 288.609 382.418 256.257 381.927C224.004 381.435 176.214 383.697 172.969 374.06C169.625 364.423 196.667 357.933 199.125 352.525C201.485 347.215 141.699 350.165 143.174 343.97C143.665 341.905 145.534 340.037 148.582 338.365C149.369 339.84 152.515 341.315 161.267 342.003C181.229 343.478 209.45 344.56 211.122 348.788C212.794 353.017 183.392 364.62 187.129 370.52C190.865 376.322 270.024 373.962 317.322 375.633C364.62 377.305 406.707 374.257 401.299 371.012C395.89 367.767 382.714 360.588 392.645 354.098C402.577 347.608 457.349 346.527 480.457 344.265C489.897 343.38 496.584 341.807 501.107 340.332C500.714 349.968 435.814 350.46 416.442 353.508C393.924 356.95 392.744 359.998 412.607 368.75Z" fill="#99ADF9"/>
<path d="M466.1 333.252C460.102 333.743 460.594 339.643 470.82 338.267C480.949 336.988 477.802 332.268 466.1 333.252Z" fill="#99ADF9"/>
<path d="M430.602 337.676C424.603 338.168 425.095 344.068 435.322 342.691C445.548 341.511 442.303 336.693 430.602 337.676Z" fill="#99ADF9"/>
<path d="M172.28 335.218C166.282 335.71 166.774 341.61 177.001 340.233C187.227 339.053 183.982 334.333 172.28 335.218Z" fill="#99ADF9"/>
<path d="M204.337 355.573C198.339 356.065 198.83 361.965 209.057 360.588C219.185 359.31 216.039 354.59 204.337 355.573Z" fill="#99ADF9"/>
<path d="M521.462 363.833C514.677 368.455 504.253 369.438 488.815 369.635C477.703 369.832 471.41 366.292 472.197 362.85C472.787 360.293 477.408 357.835 486.848 356.852C504.45 355.082 520.577 357.245 522.74 360.687C523.428 361.67 523.035 362.752 521.462 363.833Z" fill="#C7D4FF"/>
<path d="M188.505 320.763C180.344 325.483 167.56 326.762 148.484 327.352C134.815 327.745 126.949 324.402 127.932 320.96C128.62 318.403 134.225 315.748 145.829 314.667C167.364 312.503 187.325 314.273 190.177 317.715C190.964 318.6 190.472 319.583 188.505 320.763Z" fill="#C7D4FF"/>
<path d="M501.303 175.132C501.303 175.132 514.677 173.755 529.525 193.028C541.325 208.27 538.67 226.462 538.67 226.462C538.67 226.462 547.717 207.778 535.523 190.373C522.445 171.788 501.303 175.132 501.303 175.132Z" fill="#C7D4FF"/>
<path d="M494.223 235.213C494.223 235.213 497.763 243.473 494.42 255.273C491.077 267.073 484.783 271.99 484.783 271.99C484.783 271.99 496.092 268.942 498.845 255.765C501.697 242.49 494.223 235.213 494.223 235.213Z" fill="#C7D4FF"/>
<path d="M210.335 244.26C210.335 244.26 208.958 236.59 219.775 222.135C230.592 207.68 246.325 202.173 246.325 202.173L227.248 162.742C227.248 162.742 234.427 190.373 223.905 198.633C213.285 206.893 195.782 196.273 195.782 196.273C195.782 196.273 206.205 214.563 202.862 222.627C199.617 230.69 181.917 232.067 181.917 232.067L210.335 244.26Z" fill="#99ADF9"/>
<path d="M271.203 400.217L259.403 414.377C258.223 415.852 255.962 416.048 254.487 414.77C253.012 413.59 252.815 411.328 254.093 409.853C254.192 409.755 254.388 409.558 254.487 409.46L268.45 397.365C269.237 396.677 270.515 396.775 271.203 397.562C271.892 398.447 271.793 399.528 271.203 400.217Z" fill="#99ADF9"/>
<path d="M287.625 401.889L285.265 430.602C285.166 432.175 283.691 433.355 282.118 433.257C280.545 433.159 279.365 431.684 279.463 430.11V430.012L283.298 401.397C283.495 400.217 284.576 399.43 285.756 399.529C286.936 399.725 287.723 400.807 287.625 401.889Z" fill="#99ADF9"/>
<path d="M304.44 400.807L312.208 421.162C312.897 422.932 312.012 424.997 310.242 425.685C308.472 426.373 306.407 425.488 305.718 423.718C305.62 423.62 305.62 423.423 305.62 423.227L300.703 401.987C300.507 400.905 301.097 399.922 302.178 399.627C303.162 399.43 304.145 399.922 304.44 400.807Z" fill="#99ADF9"/>
<path d="M320.272 397.562L331.973 405.428C333.547 406.51 334.038 408.674 332.957 410.247C331.875 411.82 329.712 412.312 328.138 411.23C327.942 411.132 327.745 410.935 327.647 410.837L317.518 401.003C316.633 400.118 316.633 398.742 317.518 397.955C318.207 397.07 319.387 396.972 320.272 397.562Z" fill="#99ADF9"/>
<path d="M526.28 250.357C520.478 268.45 495.108 277.693 495.108 277.693C495.108 277.693 495.403 277.398 495.895 276.907C499.533 272.777 514.578 253.7 501.697 228.92C487.143 200.797 439.058 210.433 439.058 210.433L437.977 203.452L436.797 196.175C436.797 196.175 462.953 172.87 498.255 186.145C531.885 198.83 532.082 232.362 526.28 250.357Z" fill="#FEC272"/>
<path d="M507.597 266.09C504.843 270.417 500.517 274.055 495.993 276.907C499.632 272.777 514.677 253.7 501.795 228.92C487.242 200.797 439.157 210.433 439.157 210.433L438.075 203.452C448.498 201.977 476.032 199.617 494.715 210.433C516.938 223.315 516.84 251.635 507.597 266.09Z" fill="#FCAA51"/>
<path d="M447.515 232.558C447.023 248.193 444.467 261.763 440.927 269.63C433.355 286.74 428.045 296.475 416.933 305.128C412.803 308.373 407.887 311.422 401.692 314.667C378.977 326.565 317.125 327.352 317.125 327.352C314.667 327.548 312.208 327.745 309.75 327.843C287.232 329.023 265.992 326.565 252.913 319.485C246.817 316.24 242.49 311.913 240.622 306.603C234.427 288.51 232.165 260.878 273.268 190.865C299.72 145.828 332.76 128.03 364.03 128.227C380.648 128.325 396.677 133.537 411.033 142.387C411.623 142.78 412.312 143.173 412.902 143.567C440.632 161.463 448.498 201.19 447.515 232.558Z" fill="#FEC272"/>
<path d="M364.03 128.128C345.544 135.602 317.125 154.187 291.362 200.403C258.617 259.108 253.504 302.473 252.815 319.387C246.719 316.142 242.392 311.815 240.524 306.505C234.329 288.412 232.067 260.78 273.17 190.767C299.819 145.73 332.859 127.932 364.03 128.128Z" fill="#FFCB8D"/>
<path d="M447.515 232.558C447.024 248.193 444.467 261.763 440.927 269.63C430.504 293.033 424.407 302.67 401.692 314.568C378.977 326.467 317.125 327.253 317.125 327.253C314.667 327.45 312.209 327.647 309.75 327.745C309.062 318.403 311.422 305.817 316.929 289.395C333.645 239.245 360.195 220.758 390.187 214.957C416.049 210.04 436.207 222.627 447.515 232.558Z" fill="#FCAA51"/>
<path d="M447.515 232.558C447.024 248.193 444.467 261.763 440.927 269.63C433.355 286.74 428.045 296.475 416.934 305.128C423.817 286.052 430.405 259.797 430.995 228.133C431.684 186.243 420.08 157.825 411.034 142.387C411.624 142.78 412.312 143.173 412.902 143.567C440.632 161.463 448.499 201.19 447.515 232.558Z" fill="#FCAA51"/>
<path d="M448.007 239.835C446.433 258.223 438.763 287.723 431.585 307.292C428.733 315.06 425.98 321.353 423.62 324.598C419.687 330.203 412.017 332.661 404.347 333.153C396.283 333.743 388.122 332.366 384.385 330.301C377.502 326.663 360.392 295.295 364.227 261.075C364.423 259.01 364.718 256.945 365.112 254.88C371.995 218.398 389.105 208.172 415.065 211.023C420.178 211.613 425.587 212.498 430.602 214.268C441.025 218.005 449.383 225.085 448.007 239.835Z" fill="#FEC272"/>
<path d="M431.585 307.292C428.733 315.06 425.98 321.353 423.62 324.598C415.557 336.103 391.76 334.235 384.385 330.4C377.502 326.762 360.392 295.393 364.227 261.173C366.39 277.005 374.257 299.228 400.512 304.932C413.197 307.783 423.423 308.177 431.585 307.292Z" fill="#FCAA51"/>
<path d="M448.007 239.835C446.433 258.223 438.763 287.723 431.585 307.292C428.733 315.06 425.98 321.353 423.62 324.598C419.687 330.203 412.017 332.662 404.347 333.153C412.115 319.19 430.012 281.135 430.897 228.035C430.995 223.315 430.897 218.693 430.7 214.268C441.025 218.005 449.383 225.085 448.007 239.835Z" fill="#FCAA51"/>
<path d="M422.932 337.578C422.047 337.775 420.67 337.972 418.999 338.07C417.72 338.168 416.344 338.365 414.77 338.463C411.82 338.66 408.477 338.857 405.035 338.955C403.659 338.955 402.184 339.053 400.807 339.053C397.857 339.152 395.005 339.053 392.35 339.053C391.957 339.053 391.564 339.053 391.269 339.053C390.187 339.053 389.105 338.955 388.22 338.955C387.827 338.955 387.434 338.857 387.139 338.857C385.565 338.758 384.385 338.463 383.5 338.267C377.502 336.398 373.864 330.498 378.485 323.32C383.107 316.142 393.137 310.438 406.412 310.438C419.687 310.438 430.799 318.207 431.389 326.565C431.979 334.825 429.127 336.398 422.932 337.578Z" fill="#FEC272"/>
<path d="M405.134 325.877V338.955C403.757 338.955 402.282 339.053 400.905 339.053V325.877C400.905 324.697 401.889 323.713 402.97 323.713C404.052 323.713 405.134 324.697 405.134 325.877Z" fill="#FFA245"/>
<path d="M392.547 326.073V339.053C392.153 339.053 391.76 339.053 391.465 339.053C390.383 339.053 389.302 338.955 388.417 338.955V326.172C388.417 324.893 389.4 323.812 390.482 323.812C391.563 323.713 392.547 324.795 392.547 326.073Z" fill="#FFA245"/>
<path d="M419.097 325.877V338.07C417.819 338.168 416.442 338.365 414.869 338.463V325.877C414.869 324.697 415.852 323.713 416.934 323.713C418.015 323.713 419.097 324.697 419.097 325.877Z" fill="#FFA245"/>
<path d="M257.535 260.78C249.471 277.693 255.273 318.797 249.471 331.482C243.67 344.167 227.936 350.657 211.81 350.362C210.04 350.362 208.368 350.067 206.696 349.673C193.126 346.33 183.49 331.285 191.061 313.487C199.518 293.525 219.578 283.495 227.936 253.897C235.508 227.347 246.128 222.627 256.945 221.447C260.583 221.053 262.845 222.627 264.123 225.478C267.368 232.657 263.435 248.587 257.535 260.78Z" fill="#FF8D76"/>
<path d="M257.535 260.78C249.472 277.693 255.273 318.797 249.472 331.482C243.67 344.167 227.937 350.657 211.81 350.362C210.04 350.362 208.368 350.067 206.697 349.673C204.533 344.658 203.648 337.185 206.5 326.368C213.678 299.228 227.543 294.115 230.1 275.038C232.755 255.962 233.05 244.162 239.933 233.837C246.128 224.593 260.878 225.183 264.123 225.478C267.368 232.657 263.435 248.587 257.535 260.78Z" fill="#FC7059"/>
<path d="M386.45 316.535C385.368 319.878 383.598 322.73 381.337 325.188C372.487 334.825 356.36 337.972 346.92 336.398C335.12 334.432 323.517 310.733 324.697 293.132C325.877 275.53 313.192 252.422 310.045 240.917C307.685 232.362 308.078 225.872 310.635 221.938C311.52 220.562 312.7 219.48 314.077 218.693C317.322 217.022 329.318 211.81 341.807 230.493C354.197 249.275 353.312 259.305 367.177 273.17C381.042 287.133 391.662 300.113 386.45 316.535Z" fill="#FF8D76"/>
<path d="M381.435 325.188C372.585 334.825 356.458 337.972 347.018 336.398C335.218 334.432 323.615 310.733 324.795 293.132C325.975 275.53 313.29 252.422 310.143 240.917C307.783 232.362 308.177 225.872 310.733 221.938C318.207 220.857 330.007 222.037 335.513 237.475C343.97 260.977 342.79 273.072 355.868 284.577C368.947 296.082 379.763 308.57 381.435 324.992C381.435 325.09 381.435 325.09 381.435 325.188Z" fill="#FC7059"/>
<path d="M365.013 332.76C363.735 343.577 358.032 350.853 344.953 355.475C325.385 362.358 307.193 353.213 300.015 352.033C292.64 350.755 281.528 357.835 270.318 361.768C259.108 365.8 238.065 367.275 226.855 356.163C220.955 350.263 217.12 341.905 216.432 333.153C215.743 325.483 217.513 317.42 222.233 310.34C232.263 295.393 237.573 280.742 239.147 251.93C240.72 223.118 263.14 211.515 284.675 209.647C291.46 209.057 310.34 208.073 324.697 220.758C339.152 233.443 337.972 259.403 342.888 272.088C347.805 284.773 361.08 292.542 364.227 314.175C365.308 321.353 365.702 327.45 365.013 332.76Z" fill="#FEC272"/>
<path d="M308.865 315.847C306.014 323.615 299.032 329.22 294.312 329.22C289.592 329.22 280.447 324.697 276.022 320.567C271.302 316.142 271.007 311.913 272.089 309.062C272.089 308.963 272.187 308.767 272.285 308.668C273.564 305.915 281.234 303.457 290.87 302.178C298.245 301.195 306.604 300.998 308.57 302.277C309.062 302.67 309.554 303.162 309.947 303.948C310.93 306.21 311.029 310.143 308.865 315.847Z" fill="#FCAA51"/>
<path d="M365.014 332.76C363.735 343.577 358.032 350.853 344.954 355.475C325.385 362.358 307.194 353.213 300.015 352.033C292.64 350.755 281.529 357.835 270.319 361.768C259.109 365.8 238.065 367.275 226.855 356.163C220.955 350.263 217.12 341.905 216.432 333.153C221.054 340.725 230.69 353.607 243.375 355.77C261.469 358.818 272.187 342.692 297.262 342.692C329.515 342.692 331.875 354.983 352.034 344.462C357.639 341.413 361.867 337.185 365.014 332.76Z" fill="#FCAA51"/>
<path d="M308.275 343.97C308.079 346.133 307.784 348.592 307.095 351.05C305.227 357.933 297.557 362.162 291.264 357.933C287.232 355.278 285.265 349.182 284.38 345.052C283.889 342.593 283.692 340.922 283.692 340.922L295.689 328.138L308.472 336.988C308.374 336.988 308.57 340.037 308.275 343.97Z" fill="#FC7059"/>
<path d="M308.275 343.97C302.08 344.56 296.377 340.528 296.377 340.528C296.377 340.528 294.115 342.888 289.297 344.658C287.724 345.248 285.954 345.347 284.38 345.15C283.889 342.692 283.692 341.02 283.692 341.02L295.689 328.237L308.472 337.087C308.374 336.988 308.57 340.037 308.275 343.97Z" fill="#F45145"/>
<path d="M257.732 332.268C254.88 335.513 261.665 342.888 272.679 344.363C283.79 345.838 294.312 339.938 295.492 335.317C296.672 330.695 295.59 323.32 295.59 323.32H291.854C291.854 323.32 293.034 333.842 283.495 338.07C268.745 344.56 259.699 329.908 257.732 332.268Z" fill="#1C3177"/>
<path d="M297.36 321.255C297.36 321.255 298.049 331.187 307.194 334.825C316.24 338.463 320.37 336.103 323.812 334.53C327.549 332.76 327.549 329.023 330.204 330.105C331.58 330.695 331.089 335.612 326.369 338.758C320.764 342.495 315.257 342.987 307.587 341.118C299.917 339.25 295.787 335.808 294.804 331.58C293.82 327.352 293.23 322.533 293.23 322.533L297.36 321.255Z" fill="#1C3177"/>
<path d="M308.865 311.422C306.014 319.19 299.032 324.795 294.312 324.795C289.592 324.795 280.447 320.272 276.022 316.142C271.302 311.717 271.007 307.488 272.089 304.637C272.089 304.538 272.187 304.342 272.285 304.243C273.564 301.49 281.234 299.032 290.87 297.753C298.245 296.77 306.604 296.573 308.57 297.852C309.062 298.245 309.554 298.737 309.947 299.523C310.93 301.883 311.029 305.718 308.865 311.422Z" fill="#1C3177"/>
<path d="M308.865 311.422C306.014 319.19 299.032 324.795 294.312 324.795C289.592 324.795 280.447 320.272 276.022 316.142C271.302 311.717 271.007 307.488 272.089 304.637C272.58 304.637 273.072 304.833 273.564 305.423C275.924 307.98 277.989 313.487 286.544 318.305C295.197 323.123 299.13 319.583 302.965 314.568C306.8 309.553 307.489 300.9 309.357 299.72C309.554 299.622 309.652 299.523 309.849 299.523C310.93 301.883 311.029 305.718 308.865 311.422Z" fill="#0B2359"/>
<path d="M258.026 298.54C261.991 298.54 265.205 293.785 265.205 287.92C265.205 282.055 261.991 277.3 258.026 277.3C254.062 277.3 250.848 282.055 250.848 287.92C250.848 293.785 254.062 298.54 258.026 298.54Z" fill="#1C3177"/>
<path d="M322.379 293.381C326.322 292.968 329.023 287.904 328.412 282.071C327.801 276.237 324.109 271.843 320.166 272.256C316.223 272.669 313.522 277.733 314.133 283.567C314.744 289.4 318.436 293.795 322.379 293.381Z" fill="#1C3177"/>
<path d="M253.11 254.487C249.078 257.928 246.816 261.862 245.735 264.812C244.555 267.663 245.931 268.745 249.373 268.843C252.815 268.942 258.616 264.713 261.763 259.797C264.91 254.782 259.305 249.078 253.11 254.487Z" fill="#FF8D76"/>
<path d="M321.943 248.193C326.467 250.947 329.22 254.585 330.892 257.24C332.563 259.895 331.285 261.173 327.942 261.763C324.5 262.353 318.207 259.108 314.273 254.782C310.34 250.455 314.962 243.867 321.943 248.193Z" fill="#FF8D76"/>
<path d="M71.6848 463.445C67.1614 463.347 64.2114 463.15 63.7198 463.15C61.1631 462.953 59.2948 460.79 59.3931 458.233C59.5898 455.677 61.6548 453.71 64.3098 453.907C64.8014 453.907 99.0214 457.447 127.243 445.843C137.666 441.615 143.468 437.78 144.55 434.732C145.336 432.47 143.566 429.127 140.616 423.817C139.633 422.047 138.551 420.178 137.47 418.113C135.11 413.492 134.913 408.378 136.88 403.462C143.271 387.728 170.313 377.305 178.475 374.552C223.806 359.015 257.928 365.013 259.305 365.308C261.763 365.8 263.435 368.16 263.041 370.717C262.55 373.273 260.19 374.847 257.633 374.453C257.338 374.355 224.298 368.652 181.425 383.402C162.741 389.793 148.581 399.135 145.336 407.002C144.353 409.46 144.451 411.722 145.631 413.983C146.615 415.852 147.598 417.72 148.581 419.392C152.121 425.587 155.366 431.487 153.203 437.878C151.138 443.975 144.353 448.892 130.685 454.497C107.576 463.937 87.0248 463.838 71.6848 463.445Z" fill="#1C3177"/>
<path d="M249.865 377.207C251.537 381.14 255.568 383.598 262.255 384.778C272.383 386.548 278.873 383.992 278.873 383.992L278.677 380.255L277.3 358.425C277.3 358.425 268.647 357.245 259.6 360.195C251.635 362.85 248.193 367.177 248.882 373.765C249.078 374.945 249.373 376.125 249.865 377.207Z" fill="#F0F6FF"/>
<path d="M277.157 358.216C275.152 358.343 273.894 364.246 274.348 371.4C274.801 378.555 276.795 384.251 278.8 384.124C280.806 383.997 282.064 378.094 281.61 370.94C281.156 363.785 279.162 358.089 277.157 358.216Z" fill="#C2D7EF"/>
<path d="M249.865 377.207C251.537 381.14 255.568 383.598 262.255 384.778C272.383 386.548 278.873 383.992 278.873 383.992L278.677 380.255C274.743 380.058 269.728 379.763 264.91 379.272C258.027 378.387 252.913 377.698 249.865 377.207Z" fill="#C2D7EF"/>
<path d="M288.805 367.472L279.857 368.357C278.677 368.455 277.595 367.57 277.497 366.39L277.399 365.8C277.3 364.62 278.185 363.538 279.365 363.44L288.314 362.555C289.69 362.457 290.87 363.44 290.969 364.718C291.165 366.193 290.182 367.373 288.805 367.472Z" fill="#87AACC"/>
<path d="M289.69 378.485L280.742 379.37C279.562 379.468 278.48 378.583 278.382 377.403L278.283 376.813C278.185 375.633 279.07 374.552 280.25 374.453L289.198 373.568C290.575 373.47 291.755 374.453 291.853 375.732C292.05 377.207 291.067 378.387 289.69 378.485Z" fill="#87AACC"/>
<path d="M527.952 461.38C521.265 461.183 462.462 459.02 445.45 437.976C433.945 423.718 440.73 414.081 446.63 405.526C448.007 403.56 449.383 401.495 450.662 399.43C452.727 395.89 452.825 392.055 450.858 388.416C448.793 384.581 441.123 375.535 414.967 374.453C377.502 372.781 328.925 374.846 328.433 374.945C325.877 375.043 323.713 373.076 323.615 370.52C323.517 367.963 325.483 365.8 328.04 365.701C328.532 365.701 377.6 363.538 415.458 365.21C445.155 366.586 455.48 377.6 459.02 384.09C462.56 390.58 462.363 397.856 458.725 404.15C457.348 406.608 455.775 408.771 454.3 410.836C448.498 419.195 445.548 423.423 452.727 432.273C465.215 447.712 511.923 451.94 528.837 452.235C531.393 452.333 533.36 454.398 533.36 456.955C533.262 459.512 531.197 461.478 528.64 461.478C528.345 461.38 528.148 461.38 527.952 461.38Z" fill="#1C3177"/>
<path d="M334.432 373.47C333.055 377.502 329.318 380.353 322.73 382.025C312.798 384.582 306.112 382.517 306.112 382.517L306.013 378.78L305.62 356.95C305.62 356.95 314.175 354.983 323.32 357.245C331.482 359.212 335.218 363.243 335.12 369.93C335.022 371.208 334.825 372.388 334.432 373.47Z" fill="#F0F6FF"/>
<path d="M334.432 373.47C333.055 377.502 329.318 380.353 322.73 382.025C312.798 384.582 306.112 382.517 306.112 382.517L306.013 378.78C309.947 378.288 314.863 377.6 319.682 376.617C326.467 375.338 331.383 374.257 334.432 373.47Z" fill="#C2D7EF"/>
<path d="M306.145 382.7C308.154 382.663 309.675 376.823 309.543 369.655C309.411 362.488 307.675 356.708 305.666 356.745C303.657 356.782 302.136 362.622 302.268 369.789C302.4 376.957 304.136 382.737 306.145 382.7Z" fill="#C2D7EF"/>
<path d="M305.886 368.836C306.375 368.826 306.735 366.882 306.691 364.493C306.647 362.104 306.216 360.175 305.727 360.184C305.238 360.193 304.878 362.137 304.922 364.526C304.966 366.915 305.398 368.845 305.886 368.836Z" fill="#87AACC"/>
<path d="M305.888 380.047C306.376 380.038 306.737 378.094 306.693 375.705C306.649 373.316 306.217 371.386 305.728 371.395C305.239 371.404 304.879 373.348 304.923 375.737C304.967 378.126 305.399 380.056 305.888 380.047Z" fill="#87AACC"/>
<path d="M243.473 372.192C243.473 372.978 243.473 373.765 243.375 374.453C242.883 379.468 240.425 383.107 235.115 385.565C233.64 386.253 231.87 386.843 229.805 387.237C226.265 388.122 221.84 388.613 216.53 388.908C215.35 389.007 214.072 389.007 212.695 389.007C211.712 389.007 210.827 389.007 209.843 389.007C206.5 389.007 203.353 388.908 200.403 388.712C198.437 388.515 196.47 388.22 194.798 387.925C187.522 386.352 182.802 382.91 181.917 376.125C182.507 381.14 171.887 348.493 212.498 344.658C231.28 342.79 243.473 360.982 243.473 372.192Z" fill="#FCAA51"/>
<path d="M243.473 372.192C243.473 372.978 243.473 373.765 243.375 374.453C239.442 379.763 230.198 382.32 212.498 382.615C198.437 382.91 187.128 381.927 181.917 376.027C182.507 381.042 171.887 348.395 212.498 344.56C231.28 342.79 243.473 360.982 243.473 372.192Z" fill="#FEC272"/>
<path d="M200.403 388.712C198.436 388.515 196.47 388.22 194.798 387.925C194.503 385.27 193.913 378.878 194.405 373.568C195.093 366.587 197.748 366.193 198.535 367.472C199.321 368.75 198.83 376.223 199.715 383.107C199.911 385.073 200.206 387.04 200.403 388.712Z" fill="#FFA245"/>
<path d="M235.115 385.565C233.64 386.253 231.87 386.843 229.805 387.237C229.608 385.368 229.411 383.107 229.116 380.747C228.33 373.863 226.068 366.685 226.461 365.308C226.855 363.932 229.608 363.637 231.87 370.323C234.131 376.518 235.016 384.483 235.115 385.565Z" fill="#FFA245"/>
<path d="M216.53 388.908C215.35 389.007 214.072 389.007 212.695 389.007C211.712 389.007 210.827 389.007 209.844 389.007C209.844 386.352 209.745 382.812 209.549 379.567C209.254 373.175 209.057 369.045 211.024 368.652C212.99 368.258 215.055 375.338 215.94 382.812C216.235 385.368 216.432 387.335 216.53 388.908Z" fill="#FFA245"/>
<path d="M340.725 367.078C340.725 367.865 340.823 368.652 340.922 369.34C341.512 374.355 343.97 377.993 349.28 380.255C350.853 380.943 352.623 381.435 354.59 381.927C358.13 382.713 362.555 383.205 367.865 383.402C369.045 383.402 370.323 383.5 371.7 383.5C372.683 383.5 373.568 383.5 374.552 383.5C377.895 383.5 381.042 383.402 383.992 383.008C385.958 382.812 387.827 382.517 389.597 382.123C396.775 380.452 401.495 377.01 402.282 370.127C403.56 358.523 390.088 340.627 371.307 339.053C352.525 337.48 340.528 355.77 340.725 367.078Z" fill="#FCAA51"/>
<path d="M340.725 367.078C340.725 367.865 340.823 368.652 340.922 369.34C344.953 374.65 354.197 377.01 371.897 377.108C385.958 377.207 397.267 376.027 402.38 370.127C403.658 358.523 390.187 340.627 371.405 339.053C352.525 337.48 340.528 355.77 340.725 367.078Z" fill="#FEC272"/>
<path d="M383.992 383.008C385.958 382.812 387.827 382.517 389.597 382.123C389.892 379.468 390.383 373.077 389.793 367.767C389.007 360.785 386.352 360.392 385.565 361.67C384.877 362.948 385.467 370.422 384.68 377.305C384.483 379.37 384.188 381.238 383.992 383.008Z" fill="#FFA245"/>
<path d="M349.28 380.255C350.854 380.943 352.624 381.435 354.59 381.927C354.689 380.058 354.885 377.797 355.18 375.437C355.869 368.553 358.032 361.375 357.54 359.998C357.147 358.622 354.394 358.327 352.132 365.013C350.165 371.208 349.379 379.173 349.28 380.255Z" fill="#FFA245"/>
<path d="M367.865 383.303C369.045 383.303 370.324 383.402 371.7 383.402C372.684 383.402 373.569 383.402 374.552 383.402C374.552 380.747 374.552 377.207 374.65 373.962C374.847 367.57 374.945 363.44 373.077 363.047C371.11 362.653 369.144 369.832 368.357 377.305C368.062 379.862 367.964 381.828 367.865 383.303Z" fill="#FFA245"/>
</svg>
